<?xml version="1.0" encoding="UTF-8"?>
<svg id="Layer_1" data-name="Layer 1" xmlns="http://www.w3.org/2000/svg" viewBox="0 0 850.39 151.92">
  <defs>
    <style>
      .cls-1 {
        fill: #272525;
      }
    </style>
  </defs>
  <g>
    <path class="cls-1" d="M19,104.18L53.27,15.98h20.16l-33.01,88.2h-21.42ZM35.13,87.42v-17.89h58.09v17.89h-58.09ZM87.8,104.18L54.78,15.98h20.16l34.27,88.2h-21.42Z"/>
    <path class="cls-1" d="M118.79,104.18V15.98h20.29v88.2h-20.29ZM130.89,104.18v-18.65h45.74v18.65h-45.74Z"/>
    <path class="cls-1" d="M187.46,104.18V15.98h19.78v88.2h-19.78ZM193.26,68.14v-17.51h24.44c3.19,0,5.75-.82,7.69-2.46,1.93-1.64,2.9-3.93,2.9-6.87s-1.03-5.37-3.09-7.06c-2.06-1.68-4.81-2.48-8.25-2.39h-23.69v-15.62l25.07-.38c6.05,0,11.38.95,16,2.83,4.62,1.89,8.23,4.73,10.84,8.51,2.6,3.78,3.91,8.57,3.91,14.36,0,4.45-1.66,8.55-4.98,12.29-3.32,3.74-7.92,6.76-13.8,9.07-5.88,2.31-12.69,3.47-20.41,3.47l-16.63,1.76ZM194.01,104.18v-17.89h26.21c3.44,0,6.17-.9,8.19-2.71,2.02-1.81,3.02-4.14,3.02-6.99,0-3.02-1.05-5.42-3.15-7.18-2.1-1.76-5-2.6-8.69-2.52h-25.58v-15.37l15.25.5c8.48,0,15.98.86,22.49,2.58,6.51,1.72,11.57,4.49,15.18,8.32,3.61,3.82,5.42,9.01,5.42,15.56,0,5.54-1.26,10.23-3.78,14.05-2.52,3.82-6.01,6.72-10.46,8.69-4.45,1.97-9.66,2.96-15.62,2.96h-28.48Z"/>
    <path class="cls-1" d="M264.7,104.18V15.98h20.29v88.2h-20.29Z"/>
    <path class="cls-1" d="M343.7,105.69c-9.07,0-17.09-1.95-24.07-5.86-6.97-3.91-12.43-9.28-16.38-16.13-3.95-6.85-5.92-14.68-5.92-23.5s1.97-16.78,5.92-23.62c3.95-6.85,9.39-12.22,16.32-16.13,6.93-3.91,14.89-5.86,23.88-5.86s16.95,1.95,23.88,5.86c6.93,3.91,12.37,9.28,16.32,16.13,3.95,6.85,5.92,14.72,5.92,23.62s-1.95,16.65-5.86,23.5c-3.91,6.85-9.3,12.22-16.19,16.13-6.89,3.91-14.83,5.86-23.81,5.86ZM343.7,87.04c4.96,0,9.32-1.13,13.1-3.4s6.72-5.44,8.82-9.51c2.1-4.07,3.15-8.71,3.15-13.92s-1.09-9.97-3.28-14.05c-2.19-4.07-5.17-7.26-8.95-9.58-3.78-2.31-8.15-3.46-13.1-3.46s-9.32,1.16-13.1,3.46c-3.78,2.31-6.76,5.5-8.95,9.58-2.19,4.08-3.28,8.72-3.28,13.92s1.09,9.98,3.28,14.05c2.18,4.08,5.21,7.24,9.07,9.51,3.86,2.27,8.27,3.4,13.23,3.4Z"/>
    <path class="cls-1" d="M401.91,104.18V15.98h21.29l-1.01,18.4v69.93l-20.29-.13ZM461.89,104.18l-55.31-77.11,16.63-11.09,54.94,76.73-16.25,11.47ZM461.89,104.18V15.98h20.29v88.2h-20.29Z"/>
    <path class="cls-1" d="M528.79,104.18V15.98h20.29v88.2h-20.29ZM540.89,104.18v-18.65h45.74v18.65h-45.74Z"/>
    <path class="cls-1" d="M589.9,104.18l34.27-88.2h20.16l-33.01,88.2h-21.42ZM606.03,87.42v-17.89h58.09v17.89h-58.09ZM658.7,104.18l-33.01-88.2h20.16l34.27,88.2h-21.42Z"/>
    <path class="cls-1" d="M689.69,104.18V15.98h19.78v88.2h-19.78ZM695.49,68.14v-17.51h24.44c3.19,0,5.75-.82,7.69-2.46,1.93-1.64,2.9-3.93,2.9-6.87s-1.03-5.37-3.09-7.06c-2.06-1.68-4.81-2.48-8.25-2.39h-23.69v-15.62l25.07-.38c6.05,0,11.38.95,16,2.83,4.62,1.89,8.23,4.73,10.84,8.51,2.6,3.78,3.91,8.57,3.91,14.36,0,4.45-1.66,8.55-4.98,12.29-3.32,3.74-7.92,6.76-13.8,9.07-5.88,2.31-12.68,3.47-20.41,3.47l-16.63,1.76ZM696.24,104.18v-17.89h26.21c3.44,0,6.17-.9,8.19-2.71,2.02-1.81,3.02-4.14,3.02-6.99,0-3.02-1.05-5.42-3.15-7.18-2.1-1.76-5-2.6-8.69-2.52h-25.58v-15.37l15.25.5c8.48,0,15.98.86,22.49,2.58,6.51,1.72,11.57,4.49,15.18,8.32,3.61,3.82,5.42,9.01,5.42,15.56,0,5.54-1.26,10.23-3.78,14.05-2.52,3.82-6.01,6.72-10.46,8.69-4.45,1.97-9.66,2.96-15.62,2.96h-28.48Z"/>
    <path class="cls-1" d="M797.17,105.69c-4.28,0-8.38-.57-12.28-1.7-3.91-1.13-7.43-2.69-10.58-4.66-3.15-1.97-5.73-4.2-7.75-6.68-2.02-2.48-3.28-5.14-3.78-8l20.03-5.67c.92,2.44,2.54,4.56,4.85,6.36,2.31,1.81,5.23,2.75,8.76,2.83,3.44.08,6.32-.71,8.63-2.39,2.31-1.68,3.47-3.86,3.47-6.55,0-2.1-.82-3.95-2.46-5.54-1.64-1.59-3.97-2.81-6.99-3.65l-12.47-3.15c-4.37-1.09-8.17-2.81-11.4-5.17-3.24-2.35-5.75-5.23-7.56-8.63-1.81-3.4-2.71-7.29-2.71-11.66,0-8.48,2.81-15.1,8.44-19.84,5.63-4.75,13.56-7.12,23.81-7.12,5.63,0,10.54.78,14.74,2.33,4.2,1.56,7.79,3.84,10.77,6.87,2.98,3.02,5.35,6.8,7.12,11.34l-19.91,5.92c-.67-2.27-2.12-4.33-4.35-6.17-2.23-1.85-5.1-2.77-8.63-2.77s-6.28.8-8.25,2.39c-1.97,1.6-2.96,3.91-2.96,6.93,0,2.1.8,3.84,2.39,5.23,1.59,1.39,3.78,2.42,6.55,3.09l12.47,3.15c7.14,1.76,12.71,5.06,16.7,9.89,3.99,4.83,5.99,10.31,5.99,16.44,0,5.54-1.28,10.29-3.84,14.24-2.56,3.95-6.28,6.99-11.15,9.13-4.87,2.14-10.75,3.21-17.64,3.21Z"/>
  </g>
  <path class="cls-1" d="M293.61,136.88c-2.02,0-3.75-.72-5.19-2.17s-2.17-3.19-2.17-5.23v-11.04c0-2.04.72-3.78,2.15-5.21,1.43-1.43,3.17-2.15,5.21-2.15h18.44c2.04,0,3.78.71,5.21,2.15s2.15,3.17,2.15,5.21v11.04c0,2.02-.72,3.76-2.15,5.21-1.43,1.46-3.17,2.19-5.21,2.19h-18.44ZM294.38,129.52h16.94c.2,0,.38-.07.52-.21.14-.14.21-.31.21-.52v-9.62c0-.21-.07-.38-.21-.52-.14-.14-.31-.21-.52-.21h-16.94c-.23,0-.42.07-.56.21-.14.14-.21.31-.21.52v9.62c0,.49.26.73.77.73Z"/>
  <path class="cls-1" d="M328.57,136.92c-2.02,0-3.75-.72-5.19-2.17s-2.17-3.19-2.17-5.23v-11.04c0-2.04.72-3.78,2.15-5.21,1.43-1.43,3.17-2.15,5.21-2.15h18.44c2.04,0,3.78.71,5.21,2.15,1.43,1.43,2.15,3.17,2.15,5.21v11.04c0,2.02-.72,3.76-2.15,5.21-1.43,1.46-3.17,2.19-5.21,2.19h-18.44ZM329.34,129.56h16.94c.2,0,.38-.07.52-.21.14-.14.21-.31.21-.52v-9.62c0-.21-.07-.38-.21-.52-.14-.14-.31-.21-.52-.21h-16.94c-.23,0-.42.07-.56.21-.14.14-.21.31-.21.52v9.62c0,.49.26.73.77.73Z"/>
  <path class="cls-1" d="M363.53,136.92c-2.02,0-3.75-.72-5.19-2.17s-2.17-3.19-2.17-5.23v-11.04c0-2.04.71-3.78,2.15-5.21,1.43-1.43,3.17-2.15,5.21-2.15h18.44c2.04,0,3.78.71,5.21,2.15,1.43,1.43,2.15,3.17,2.15,5.21v11.04c0,2.02-.72,3.76-2.15,5.21-1.43,1.46-3.17,2.19-5.21,2.19h-18.44ZM364.3,129.56h16.95c.2,0,.38-.07.52-.21.14-.14.21-.31.21-.52v-9.62c0-.21-.07-.38-.21-.52-.14-.14-.31-.21-.52-.21h-16.95c-.23,0-.42.07-.56.21-.14.14-.21.31-.21.52v9.62c0,.49.26.73.77.73Z"/>
  <path class="cls-1" d="M398.49,136.88c-2.02,0-3.75-.72-5.19-2.17s-2.17-3.19-2.17-5.23v-11.04c0-2.04.71-3.78,2.15-5.21,1.43-1.43,3.17-2.15,5.21-2.15h18.44c2.04,0,3.78.71,5.21,2.15,1.43,1.43,2.15,3.17,2.15,5.21v11.04c0,2.02-.72,3.76-2.15,5.21-1.43,1.46-3.17,2.19-5.21,2.19h-18.44ZM399.26,129.52h16.95c.2,0,.38-.07.52-.21.14-.14.21-.31.21-.52v-9.62c0-.21-.07-.38-.21-.52-.14-.14-.31-.21-.52-.21h-16.95c-.23,0-.42.07-.56.21-.14.14-.21.31-.21.52v9.62c0,.49.26.73.77.73Z"/>
  <path class="cls-1" d="M433.46,136.88c-2.02,0-3.75-.72-5.19-2.17s-2.17-3.19-2.17-5.23v-11.04c0-2.04.71-3.78,2.15-5.21,1.43-1.43,3.17-2.15,5.21-2.15h18.44c2.04,0,3.78.71,5.21,2.15,1.43,1.43,2.15,3.17,2.15,5.21v11.04c0,2.02-.72,3.76-2.15,5.21-1.43,1.46-3.17,2.19-5.21,2.19h-18.44ZM434.22,129.52h16.95c.2,0,.38-.07.52-.21.14-.14.21-.31.21-.52v-9.62c0-.21-.07-.38-.21-.52-.14-.14-.31-.21-.52-.21h-16.95c-.23,0-.42.07-.56.21-.14.14-.21.31-.21.52v9.62c0,.49.26.73.77.73Z"/>
  <path class="cls-1" d="M468.42,136.88c-2.02,0-3.75-.72-5.19-2.17s-2.17-3.19-2.17-5.23v-11.04c0-2.04.71-3.78,2.15-5.21,1.43-1.43,3.17-2.15,5.21-2.15h18.44c2.04,0,3.78.71,5.21,2.15,1.43,1.43,2.15,3.17,2.15,5.21v11.04c0,2.02-.72,3.76-2.15,5.21-1.43,1.46-3.17,2.19-5.21,2.19h-18.44ZM469.18,129.52h16.95c.2,0,.38-.07.52-.21.14-.14.21-.31.21-.52v-9.62c0-.21-.07-.38-.21-.52-.14-.14-.31-.21-.52-.21h-16.95c-.23,0-.42.07-.56.21-.14.14-.21.31-.21.52v9.62c0,.49.26.73.77.73Z"/>
  <path class="cls-1" d="M503.38,136.88c-2.02,0-3.75-.72-5.19-2.17s-2.17-3.19-2.17-5.23v-11.04c0-2.04.71-3.78,2.15-5.21,1.43-1.43,3.17-2.15,5.21-2.15h18.44c2.04,0,3.78.71,5.21,2.15,1.43,1.43,2.15,3.17,2.15,5.21v11.04c0,2.02-.72,3.76-2.15,5.21-1.43,1.46-3.17,2.19-5.21,2.19h-18.44ZM504.14,129.52h16.95c.2,0,.38-.07.52-.21.14-.14.21-.31.21-.52v-9.62c0-.21-.07-.38-.21-.52-.14-.14-.31-.21-.52-.21h-16.95c-.23,0-.42.07-.56.21-.14.14-.21.31-.21.52v9.62c0,.49.26.73.77.73Z"/>
  <path class="cls-1" d="M538.34,136.88c-2.02,0-3.75-.72-5.19-2.17s-2.17-3.19-2.17-5.23v-11.04c0-2.04.71-3.78,2.15-5.21,1.43-1.43,3.17-2.15,5.21-2.15h18.44c2.04,0,3.78.71,5.21,2.15,1.43,1.43,2.15,3.17,2.15,5.21v11.04c0,2.02-.72,3.76-2.15,5.21-1.43,1.46-3.17,2.19-5.21,2.19h-18.44ZM539.11,129.51h16.95c.2,0,.38-.07.52-.21.14-.14.21-.31.21-.52v-9.62c0-.21-.07-.38-.21-.52-.14-.14-.31-.21-.52-.21h-16.95c-.23,0-.42.07-.56.21-.14.14-.21.31-.21.52v9.62c0,.49.26.73.77.73Z"/>
  <path class="cls-1" d="M565.94,128.73v-9.5h42.8v9.5h-42.8Z"/>
  <path class="cls-1" d="M610.54,128.72v-9.5h42.8v9.5h-42.8Z"/>
  <path class="cls-1" d="M655.14,128.72v-9.5h42.8v9.5h-42.8Z"/>
  <path class="cls-1" d="M699.74,128.72v-9.5h42.8v9.5h-42.8Z"/>
  <path class="cls-1" d="M744.34,128.72v-9.5h42.8v9.5h-42.8Z"/>
  <path class="cls-1" d="M788.94,128.73v-9.5h42.8v9.5h-42.8Z"/>
  <path class="cls-1" d="M152.45,128.77v-9.5h42.8v9.5h-42.8Z"/>
  <path class="cls-1" d="M18.66,128.76v-9.5h42.8v9.5H18.66Z"/>
  <path class="cls-1" d="M241.65,128.77v-9.5h42.8v9.5h-42.8Z"/>
  <path class="cls-1" d="M197.05,128.77v-9.5h42.8v9.5h-42.8Z"/>
  <path class="cls-1" d="M152.45,117.47v-9.5h42.8v9.5h-42.8Z"/>
  <path class="cls-1" d="M107.85,117.47v-9.5h42.8v9.5h-42.8Z"/>
  <path class="cls-1" d="M63.25,117.47v-9.5h42.8v9.5h-42.8Z"/>
  <path class="cls-1" d="M18.66,117.47v-9.5h42.8v9.5H18.66Z"/>
  <path class="cls-1" d="M241.65,117.48v-9.5h42.8v9.5h-42.8Z"/>
  <path class="cls-1" d="M197.05,117.47v-9.5h42.8v9.5h-42.8Z"/>
  <path class="cls-1" d="M18.66,140.07v-9.5h42.8v9.5H18.66Z"/>
  <path class="cls-1" d="M241.65,140.07v-9.5h42.8v9.5h-42.8Z"/>
  <path class="cls-1" d="M197.05,140.07v-9.5h42.8v9.5h-42.8Z"/>
  <path class="cls-1" d="M63.25,128.77v-9.5h42.8v9.5h-42.8Z"/>
  <path class="cls-1" d="M63.25,140.07v-9.5h42.8v9.5h-42.8Z"/>
  <path class="cls-1" d="M107.85,128.77v-9.5h42.8v9.5h-42.8Z"/>
  <path class="cls-1" d="M107.85,140.07v-9.5h42.8v9.5h-42.8Z"/>
  <path class="cls-1" d="M152.45,140.07v-9.5h42.8v9.5h-42.8Z"/>
</svg>