<?xml version="1.0" encoding="UTF-8"?>
<svg id="Layer_1" data-name="Layer 1" xmlns="http://www.w3.org/2000/svg" viewBox="0 0 850.39 92.09">
  <defs>
    <style>
      .cls-1 {
        fill: #30407d;
      }
    </style>
  </defs>
  <path class="cls-1" d="M27.27,75.7l23.04-59.3h13.56l-22.2,59.3h-14.4ZM38.11,64.43v-12.03h39.06v12.03h-39.06ZM73.52,75.7l-22.2-59.3h13.56l23.04,59.3h-14.4Z"/>
  <path class="cls-1" d="M94.36,75.7V16.39h13.64v59.3h-13.64ZM102.5,75.7v-12.54h30.75v12.54h-30.75Z"/>
  <path class="cls-1" d="M140.54,75.7V16.39h13.3v59.3h-13.3ZM144.43,51.47v-11.78h16.44c2.15,0,3.87-.55,5.17-1.65,1.3-1.1,1.95-2.64,1.95-4.62s-.69-3.61-2.08-4.74c-1.38-1.13-3.23-1.67-5.55-1.61h-15.93v-10.51l16.86-.25c4.07,0,7.65.64,10.76,1.91,3.11,1.27,5.53,3.18,7.29,5.72,1.75,2.54,2.63,5.76,2.63,9.66,0,2.99-1.12,5.75-3.35,8.26-2.23,2.51-5.32,4.55-9.28,6.1-3.95,1.55-8.53,2.33-13.72,2.33l-11.18,1.19ZM144.94,75.7v-12.03h17.62c2.32,0,4.15-.61,5.51-1.82,1.36-1.21,2.03-2.78,2.03-4.7,0-2.03-.71-3.64-2.12-4.83-1.41-1.19-3.36-1.75-5.85-1.69h-17.2v-10.34l10.25.34c5.7,0,10.74.58,15.12,1.74,4.38,1.16,7.78,3.02,10.21,5.59,2.43,2.57,3.64,6.06,3.64,10.46,0,3.73-.85,6.88-2.54,9.45-1.69,2.57-4.04,4.52-7.03,5.85-2.99,1.33-6.5,1.99-10.51,1.99h-19.15Z"/>
  <path class="cls-1" d="M192.47,75.7V16.39h13.64v59.3h-13.64Z"/>
  <path class="cls-1" d="M245.59,76.72c-6.1,0-11.49-1.31-16.18-3.94-4.69-2.63-8.36-6.24-11.01-10.84-2.66-4.6-3.98-9.87-3.98-15.8s1.33-11.28,3.98-15.88c2.65-4.6,6.31-8.22,10.97-10.84,4.66-2.63,10.01-3.94,16.05-3.94s11.39,1.31,16.05,3.94c4.66,2.63,8.32,6.24,10.97,10.84,2.65,4.6,3.98,9.9,3.98,15.88s-1.31,11.2-3.94,15.8c-2.63,4.6-6.26,8.22-10.89,10.84-4.63,2.63-9.97,3.94-16.01,3.94ZM245.59,64.18c3.33,0,6.27-.76,8.81-2.29,2.54-1.53,4.52-3.66,5.93-6.4,1.41-2.74,2.12-5.86,2.12-9.36s-.73-6.71-2.2-9.45c-1.47-2.74-3.47-4.88-6.01-6.44-2.54-1.55-5.48-2.33-8.81-2.33s-6.27.78-8.81,2.33c-2.54,1.55-4.55,3.7-6.01,6.44-1.47,2.74-2.2,5.86-2.2,9.36s.73,6.71,2.2,9.45c1.47,2.74,3.5,4.87,6.1,6.4,2.6,1.53,5.56,2.29,8.9,2.29Z"/>
  <path class="cls-1" d="M284.73,75.7V16.39h14.32l-.68,12.37v47.02l-13.64-.08ZM325.06,75.7l-37.19-51.85,11.18-7.46,36.94,51.59-10.93,7.71ZM325.06,75.7V16.39h13.64v59.3h-13.64Z"/>
  <path class="cls-1" d="M370.04,75.7V16.39h13.64v59.3h-13.64ZM379.95,28.93v-12.54h28.72v12.54h-28.72ZM379.95,51.89v-12.11h24.65v12.11h-24.65ZM379.95,75.7v-12.54h29.14v12.54h-29.14Z"/>
  <path class="cls-1" d="M414.86,75.7l23.04-32.45,18.55-26.86h16.27l-22.45,30.67-18.98,28.64h-16.44ZM456.79,75.7l-18.89-28.64-22.54-30.67h16.27l18.64,26.86,22.96,32.45h-16.44Z"/>
  <path class="cls-1" d="M506.61,76.72c-5.87,0-11.06-1.31-15.55-3.94-4.49-2.63-8.02-6.24-10.59-10.84-2.57-4.6-3.85-9.9-3.85-15.88s1.28-11.28,3.85-15.88c2.57-4.6,6.1-8.22,10.59-10.84,4.49-2.63,9.67-3.94,15.55-3.94,4.29,0,8.23.75,11.82,2.24,3.59,1.5,6.69,3.6,9.32,6.31,2.63,2.71,4.64,5.85,6.06,9.4l-12.79,4.32c-.85-1.98-1.99-3.7-3.43-5.17-1.44-1.47-3.08-2.6-4.91-3.39-1.84-.79-3.85-1.19-6.06-1.19-3.11,0-5.87.76-8.3,2.29-2.43,1.53-4.32,3.66-5.68,6.4-1.36,2.74-2.03,5.89-2.03,9.45s.69,6.71,2.08,9.45c1.38,2.74,3.3,4.89,5.76,6.44,2.46,1.55,5.27,2.33,8.43,2.33,2.32,0,4.38-.42,6.18-1.27,1.81-.85,3.37-2.03,4.7-3.56,1.33-1.53,2.47-3.27,3.43-5.25l12.79,4.32c-1.36,3.62-3.36,6.79-6.02,9.53-2.66,2.74-5.79,4.87-9.4,6.4-3.62,1.53-7.6,2.29-11.95,2.29Z"/>
  <path class="cls-1" d="M541.43,75.7V16.31l13.64.08v59.39l-13.64-.08ZM551.09,51.72v-12.54h35.92v12.54h-35.92ZM579.72,75.7V16.39h13.64v59.3h-13.64Z"/>
  <path class="cls-1" d="M599.8,75.7l23.04-59.3h13.56l-22.2,59.3h-14.4ZM610.64,64.43v-12.03h39.06v12.03h-39.06ZM646.06,75.7l-22.2-59.3h13.56l23.04,59.3h-14.4Z"/>
  <path class="cls-1" d="M666.9,75.7V16.39h14.32l-.68,12.37v47.02l-13.64-.08ZM707.22,75.7l-37.19-51.85,11.18-7.46,36.94,51.59-10.93,7.71ZM707.22,75.7V16.39h13.64v59.3h-13.64Z"/>
  <path class="cls-1" d="M760.26,76.72c-6.1,0-11.48-1.31-16.14-3.94-4.66-2.63-8.32-6.24-10.97-10.84-2.66-4.6-3.98-9.9-3.98-15.88s1.33-11.28,3.98-15.88c2.65-4.6,6.31-8.22,10.97-10.84,4.66-2.63,10.04-3.94,16.14-3.94,3.78,0,7.21.55,10.29,1.65,3.08,1.1,5.77,2.61,8.09,4.53,2.32,1.92,4.24,4.12,5.76,6.61l-11.27,6.78c-.85-1.36-1.96-2.57-3.35-3.64-1.38-1.07-2.9-1.91-4.53-2.5-1.64-.59-3.3-.89-5-.89-3.33,0-6.28.76-8.85,2.29-2.57,1.53-4.59,3.66-6.06,6.4-1.47,2.74-2.2,5.89-2.2,9.45s.71,6.71,2.12,9.45c1.41,2.74,3.44,4.9,6.1,6.48,2.65,1.58,5.73,2.37,9.23,2.37,2.65,0,5-.51,7.03-1.53,2.03-1.02,3.64-2.43,4.83-4.24,1.19-1.81,1.78-3.92,1.78-6.35l12.96-2.2c0,5.76-1.16,10.63-3.47,14.61-2.32,3.98-5.48,6.99-9.49,9.02-4.01,2.03-8.67,3.05-13.98,3.05ZM760.68,53.67v-10.51h26.52v8.05l-7.62,2.46h-18.89Z"/>
  <path class="cls-1" d="M794.65,75.7V16.39h13.64v59.3h-13.64ZM804.57,28.93v-12.54h28.72v12.54h-28.72ZM804.57,51.89v-12.11h24.65v12.11h-24.65ZM804.57,75.7v-12.54h29.14v12.54h-29.14Z"/>
</svg>