<?xml version="1.0" encoding="UTF-8"?>
<svg id="Layer_1" data-name="Layer 1" xmlns="http://www.w3.org/2000/svg" viewBox="0 0 850.39 198.43">
  <defs>
    <style>
      .cls-1 {
        fill: #30407d;
      }
    </style>
  </defs>
  <g>
    <path class="cls-1" d="M228.06,134.46l25.56-65.78h15.04l-24.62,65.78h-15.98ZM240.09,121.96v-13.34h43.32v13.34h-43.32ZM279.37,134.46l-24.62-65.78h15.04l25.56,65.78h-15.98Z"/>
    <path class="cls-1" d="M302.49,134.46v-65.78h15.13v65.78h-15.13ZM311.51,134.46v-13.91h34.11v13.91h-34.11Z"/>
    <path class="cls-1" d="M353.71,134.46v-65.78h14.75v65.78h-14.75ZM358.03,107.58v-13.06h18.23c2.38,0,4.29-.61,5.73-1.83,1.44-1.22,2.16-2.93,2.16-5.12s-.77-4.01-2.3-5.26c-1.54-1.25-3.59-1.85-6.16-1.79h-17.67v-11.65l18.7-.28c4.51,0,8.49.71,11.93,2.11,3.44,1.41,6.14,3.52,8.08,6.34,1.94,2.82,2.91,6.39,2.91,10.71,0,3.32-1.24,6.38-3.71,9.16-2.48,2.79-5.91,5.04-10.29,6.77-4.39,1.72-9.46,2.58-15.22,2.58l-12.4,1.32ZM358.59,134.46v-13.34h19.55c2.57,0,4.6-.67,6.11-2.02,1.5-1.35,2.26-3.08,2.26-5.22,0-2.26-.78-4.04-2.35-5.36-1.57-1.32-3.73-1.94-6.48-1.88h-19.08v-11.46l11.37.38c6.33,0,11.92.64,16.77,1.93,4.85,1.28,8.63,3.35,11.32,6.2,2.69,2.85,4.04,6.72,4.04,11.61,0,4.13-.94,7.63-2.82,10.48-1.88,2.85-4.48,5.01-7.8,6.48-3.32,1.47-7.21,2.21-11.65,2.21h-21.24Z"/>
    <path class="cls-1" d="M411.31,134.46v-65.78h15.13v65.78h-15.13Z"/>
    <path class="cls-1" d="M470.23,135.58c-6.77,0-12.75-1.46-17.95-4.37-5.2-2.91-9.27-6.92-12.22-12.03-2.95-5.11-4.42-10.95-4.42-17.53s1.47-12.51,4.42-17.62c2.94-5.11,7-9.12,12.17-12.03,5.17-2.91,11.1-4.37,17.81-4.37s12.64,1.46,17.81,4.37c5.17,2.91,9.22,6.92,12.17,12.03,2.94,5.11,4.42,10.98,4.42,17.62s-1.46,12.42-4.37,17.53c-2.91,5.11-6.94,9.12-12.08,12.03-5.14,2.91-11.06,4.37-17.76,4.37ZM470.23,121.68c3.7,0,6.95-.85,9.77-2.54s5.01-4.06,6.58-7.09c1.57-3.04,2.35-6.5,2.35-10.38s-.82-7.44-2.44-10.48c-1.63-3.04-3.85-5.42-6.67-7.14-2.82-1.72-6.08-2.58-9.77-2.58s-6.95.86-9.77,2.58c-2.82,1.72-5.04,4.1-6.67,7.14-1.63,3.04-2.44,6.5-2.44,10.38s.81,7.44,2.44,10.48c1.63,3.04,3.88,5.4,6.77,7.09,2.88,1.69,6.17,2.54,9.87,2.54Z"/>
    <path class="cls-1" d="M513.65,134.46v-65.78h15.88l-.75,13.72v52.16l-15.13-.09ZM558.38,134.46l-41.25-57.51,12.4-8.27,40.97,57.23-12.12,8.55ZM558.38,134.46v-65.78h15.13v65.78h-15.13Z"/>
    <path class="cls-1" d="M608.28,134.46v-65.78h15.13v65.78h-15.13ZM617.3,134.46v-13.91h34.11v13.91h-34.11Z"/>
    <path class="cls-1" d="M653.85,134.46l25.56-65.78h15.04l-24.62,65.78h-15.98ZM665.88,121.96v-13.34h43.32v13.34h-43.32ZM705.16,134.46l-24.62-65.78h15.04l25.56,65.78h-15.98Z"/>
    <path class="cls-1" d="M728.28,134.46v-65.78h14.75v65.78h-14.75ZM732.6,107.58v-13.06h18.23c2.38,0,4.29-.61,5.73-1.83,1.44-1.22,2.16-2.93,2.16-5.12s-.77-4.01-2.3-5.26c-1.54-1.25-3.59-1.85-6.16-1.79h-17.67v-11.65l18.7-.28c4.51,0,8.49.71,11.93,2.11,3.44,1.41,6.14,3.52,8.08,6.34,1.94,2.82,2.91,6.39,2.91,10.71,0,3.32-1.24,6.38-3.71,9.16-2.48,2.79-5.91,5.04-10.29,6.77-4.39,1.72-9.46,2.58-15.22,2.58l-12.4,1.32ZM733.17,134.46v-13.34h19.55c2.57,0,4.6-.67,6.11-2.02,1.5-1.35,2.26-3.08,2.26-5.22,0-2.26-.78-4.04-2.35-5.36-1.57-1.32-3.73-1.94-6.48-1.88h-19.08v-11.46l11.37.38c6.33,0,11.92.64,16.77,1.93,4.85,1.28,8.63,3.35,11.32,6.2,2.69,2.85,4.04,6.72,4.04,11.61,0,4.13-.94,7.63-2.82,10.48-1.88,2.85-4.48,5.01-7.8,6.48-3.32,1.47-7.2,2.21-11.65,2.21h-21.24Z"/>
    <path class="cls-1" d="M808.44,135.58c-3.19,0-6.25-.42-9.16-1.27-2.91-.85-5.54-2-7.89-3.48-2.35-1.47-4.28-3.13-5.78-4.98-1.5-1.85-2.44-3.84-2.82-5.97l14.94-4.23c.69,1.82,1.89,3.4,3.62,4.75,1.72,1.35,3.9,2.05,6.53,2.11,2.57.06,4.71-.53,6.44-1.79,1.72-1.25,2.58-2.88,2.58-4.89,0-1.57-.61-2.94-1.83-4.13-1.22-1.19-2.96-2.1-5.22-2.73l-9.3-2.35c-3.26-.81-6.09-2.1-8.5-3.85-2.41-1.75-4.29-3.9-5.64-6.44-1.35-2.54-2.02-5.43-2.02-8.69,0-6.33,2.1-11.26,6.3-14.8,4.2-3.54,10.12-5.31,17.76-5.31,4.2,0,7.86.58,11,1.74,3.13,1.16,5.81,2.87,8.04,5.12,2.22,2.26,3.99,5.07,5.31,8.46l-14.85,4.42c-.5-1.69-1.58-3.23-3.24-4.6-1.66-1.38-3.81-2.07-6.44-2.07s-4.68.6-6.16,1.79c-1.47,1.19-2.21,2.91-2.21,5.17,0,1.57.6,2.87,1.79,3.9,1.19,1.03,2.82,1.8,4.89,2.3l9.3,2.35c5.32,1.32,9.48,3.78,12.45,7.38,2.97,3.6,4.46,7.69,4.46,12.26,0,4.14-.96,7.68-2.87,10.62-1.91,2.95-4.68,5.22-8.32,6.81-3.63,1.6-8.02,2.4-13.16,2.4Z"/>
  </g>
  <g>
    <g>
      <path class="cls-1" d="M144.06,162.67l4.24,4.24c.21-.29.31-.61.31-.98,0-.48-.17-.88-.51-1.22l-1.83-1.83c-.33-.33-.74-.5-1.22-.51-.37,0-.7.1-.99.3Z"/>
      <g>
        <path class="cls-1" d="M130.61,178.78l-7.09,7.09,1.58,1.58,7.09-7.09-1.58-1.58Z"/>
        <path class="cls-1" d="M145.39,164l-7.09,7.09,1.58,1.58,7.09-7.09-1.58-1.58Z"/>
        <path class="cls-1" d="M137.99,171.39l-7.09,7.09,1.58,1.58,7.09-7.09-1.58-1.58Z"/>
        <path class="cls-1" d="M132.48,180.65l-7.09,7.09,1.58,1.58,7.09-7.09-1.58-1.58Z"/>
        <path class="cls-1" d="M125.09,188.04l-4.96,4.96c1.2-.12,2.39-.26,3.58-.43l2.95-2.95-1.58-1.58Z"/>
        <path class="cls-1" d="M147.26,165.87l-7.09,7.09,1.57,1.57,7.09-7.09-1.57-1.57Z"/>
        <path class="cls-1" d="M139.87,173.26l-7.09,7.09,1.58,1.58,7.09-7.09-1.58-1.58Z"/>
        <path class="cls-1" d="M143.51,162.13l-7.09,7.09,1.57,1.57,7.09-7.09-1.57-1.57Z"/>
        <path class="cls-1" d="M136.12,169.52l-7.09,7.09,1.57,1.57,7.09-7.09-1.57-1.57Z"/>
        <path class="cls-1" d="M113.95,191.69l-1.78,1.78c1.09-.02,2.17-.05,3.26-.11l.09-.09-1.57-1.57Z"/>
        <path class="cls-1" d="M123.21,186.17l-7.09,7.09.05.05c1.1-.07,2.2-.15,3.3-.25l5.32-5.32-1.58-1.58Z"/>
        <path class="cls-1" d="M121.34,184.3l-7.09,7.09,1.57,1.57,7.09-7.09-1.57-1.57Z"/>
        <path class="cls-1" d="M128.73,176.91l-7.09,7.09,1.57,1.57,7.09-7.09-1.57-1.57Z"/>
      </g>
      <path class="cls-1" d="M149.62,157.07l-3.06,3.06c-.34.34-.5.74-.5,1.22,0,.48.17.89.51,1.23l1.83,1.83c.34.34.75.51,1.22.51.48,0,.88-.17,1.22-.51l3.06-3.06c.34-.34.51-.74.51-1.22,0-.47-.17-.88-.51-1.22l-1.83-1.83c-.33-.33-.74-.5-1.22-.51-.48,0-.89.16-1.23.5ZM150.72,158.42s.08-.05.12-.05c.05,0,.09.02.12.05l1.59,1.59s.05.07.05.12c0,.05-.02.09-.05.12l-2.81,2.81s-.08.06-.13.06c-.05,0-.09-.02-.12-.05l-1.59-1.59c-.08-.08-.08-.16,0-.25l2.81-2.81Z"/>
      <path class="cls-1" d="M155.42,151.28l-3.06,3.06c-.33.33-.5.74-.5,1.22,0,.48.17.89.51,1.23l1.83,1.83c.34.34.75.51,1.22.51.47,0,.88-.17,1.22-.51l3.06-3.06c.34-.34.51-.75.51-1.22,0-.47-.17-.88-.51-1.22l-1.83-1.83c-.33-.33-.74-.5-1.22-.51-.48,0-.89.16-1.23.5ZM156.52,152.62s.07-.05.12-.05c.05,0,.09.02.12.05l1.59,1.59s.05.08.05.12-.02.09-.05.12l-2.81,2.81s-.08.06-.13.06c-.05,0-.09-.02-.12-.05l-1.59-1.59c-.08-.08-.08-.16,0-.25l2.81-2.81Z"/>
      <path class="cls-1" d="M161.21,145.49l-3.06,3.06c-.33.33-.5.74-.5,1.22,0,.48.17.89.51,1.23l1.83,1.83c.34.34.75.51,1.22.51.47,0,.88-.17,1.22-.51l3.06-3.06c.34-.34.51-.75.51-1.22,0-.47-.17-.88-.51-1.22l-1.83-1.83c-.33-.33-.74-.5-1.22-.51-.48,0-.89.16-1.23.5ZM162.31,146.83s.07-.05.12-.05c.05,0,.09.02.12.05l1.59,1.59s.05.08.05.12-.02.09-.05.12l-2.81,2.81s-.08.06-.13.06c-.05,0-.09-.02-.12-.05l-1.59-1.59c-.08-.08-.08-.16,0-.25l2.81-2.81Z"/>
      <path class="cls-1" d="M167.01,139.69l-3.06,3.06c-.34.34-.5.74-.5,1.22,0,.48.17.89.51,1.23l1.83,1.83c.34.34.75.51,1.22.51.47,0,.88-.17,1.22-.51l3.06-3.06c.34-.34.51-.75.51-1.22,0-.47-.17-.88-.51-1.22l-1.83-1.83c-.33-.33-.74-.5-1.22-.51-.48,0-.89.16-1.23.5ZM168.11,141.03s.07-.05.12-.05c.05,0,.09.02.12.05l1.59,1.59s.05.08.05.12c0,.05-.02.09-.05.12l-2.81,2.81s-.08.06-.13.06c-.05,0-.09-.02-.12-.05l-1.59-1.59c-.08-.08-.08-.16,0-.25l2.81-2.81Z"/>
      <path class="cls-1" d="M172.8,133.9l-3.06,3.06c-.34.34-.5.74-.5,1.22,0,.48.17.89.51,1.23l1.83,1.83c.34.34.75.51,1.22.51.47,0,.88-.17,1.22-.51l3.06-3.06c.12-.12.23-.26.3-.4.14-.25.2-.52.2-.82,0-.47-.17-.88-.51-1.22l-1.83-1.83c-.33-.33-.74-.5-1.22-.51-.48,0-.89.16-1.23.5ZM173.9,135.24s.07-.05.12-.05c.05,0,.09.02.12.05l1.59,1.59s.05.08.05.12c0,.05-.02.09-.05.12l-2.81,2.81s-.08.06-.13.06c-.05,0-.09-.02-.12-.05l-1.59-1.59c-.08-.08-.08-.16,0-.25l2.81-2.81Z"/>
      <g>
        <path class="cls-1" d="M182.76,126.64l-7.09,7.09,1.57,1.57,7.09-7.09-1.57-1.57Z"/>
        <path class="cls-1" d="M190.15,119.25l-7.09,7.09,1.57,1.57,7.09-7.09-1.57-1.57Z"/>
        <path class="cls-1" d="M197.55,111.86l-7.09,7.09,1.57,1.57,7.09-7.09-1.57-1.57Z"/>
        <path class="cls-1" d="M204.82,104.58l-6.98,6.98,1.57,1.57,5.14-5.14c.11-1.13.19-2.27.26-3.41Z"/>
      </g>
    </g>
    <g>
      <path class="cls-1" d="M135.11,158.47l2.97,2.97c-.08-.26-.22-.5-.43-.71l-1.84-1.84s-.08-.07-.12-.11c-.04-.04-.09-.07-.14-.11-.04-.02-.07-.05-.11-.07-.11-.06-.22-.11-.33-.14Z"/>
      <g>
        <path class="cls-1" d="M121.01,173.92l-7.09,7.09,1.58,1.58,7.09-7.09-1.58-1.58Z"/>
        <path class="cls-1" d="M135.79,159.14l-7.09,7.09,1.58,1.58,7.09-7.09-1.58-1.58Z"/>
        <path class="cls-1" d="M128.4,166.53l-7.09,7.09,1.58,1.58,7.09-7.09-1.58-1.58Z"/>
        <path class="cls-1" d="M119.14,172.05l-7.09,7.09,1.57,1.57,7.09-7.09-1.57-1.57Z"/>
        <path class="cls-1" d="M111.75,179.44l-7.09,7.09,1.57,1.57,7.09-7.09-1.57-1.57Z"/>
        <path class="cls-1" d="M104.35,186.83l-5.95,5.95c.94.12,1.88.23,2.82.33l4.7-4.7-1.57-1.57Z"/>
        <path class="cls-1" d="M133.92,157.27l-7.09,7.09,1.57,1.57,7.09-7.09-1.57-1.57Z"/>
        <path class="cls-1" d="M126.53,164.66l-7.09,7.09,1.57,1.57,7.09-7.09-1.57-1.57Z"/>
        <path class="cls-1" d="M137.66,161.01l-7.09,7.09,1.58,1.58,7.09-7.09-1.58-1.58Z"/>
        <path class="cls-1" d="M130.27,168.41l-7.09,7.09,1.58,1.58,7.09-7.09-1.58-1.58Z"/>
        <path class="cls-1" d="M106.23,188.71l-4.45,4.45c.97.09,1.95.17,2.92.23l3.11-3.11-1.58-1.58Z"/>
        <path class="cls-1" d="M108.1,190.58l-2.84,2.84c1.01.06,2.02.1,3.02.13l1.39-1.39-1.58-1.58Z"/>
        <path class="cls-1" d="M113.62,181.32l-7.09,7.09,1.58,1.58,7.09-7.09-1.58-1.58Z"/>
        <path class="cls-1" d="M115.49,183.19l-7.09,7.09,1.58,1.58,7.09-7.09-1.58-1.58Z"/>
        <path class="cls-1" d="M122.88,175.8l-7.09,7.09,1.58,1.58,7.09-7.09-1.58-1.58Z"/>
      </g>
      <path class="cls-1" d="M143.93,156.13c0-.48-.17-.88-.51-1.22l-1.83-1.83c-.34-.34-.75-.51-1.22-.51-.48,0-.88.17-1.22.51l-3.06,3.06c-.34.34-.51.75-.51,1.22,0,.48.17.88.51,1.22l1.83,1.83c.34.34.75.51,1.23.51.48,0,.88-.17,1.22-.5l3.06-3.06c.34-.34.5-.75.5-1.23ZM139.28,159.06c-.08.08-.17.09-.25,0l-1.6-1.6s-.05-.07-.05-.12c0-.05.02-.09.06-.13l2.81-2.81s.07-.05.12-.05c.05,0,.09.02.12.05l1.6,1.6s.05.07.05.12c0,.05-.02.09-.05.12l-2.81,2.81Z"/>
      <path class="cls-1" d="M149.72,150.33c0-.48-.17-.89-.51-1.22l-1.83-1.83c-.34-.34-.75-.51-1.22-.51-.48,0-.88.17-1.22.51l-3.05,3.05c-.34.34-.51.75-.51,1.22,0,.48.17.88.51,1.22l1.83,1.83c.34.34.75.51,1.23.51.48,0,.89-.17,1.22-.5l3.05-3.05c.34-.34.51-.75.5-1.23ZM145.06,153.26c-.08.08-.17.08-.25,0l-1.59-1.59s-.05-.07-.05-.12c0-.05.02-.09.06-.13l2.81-2.81s.07-.05.12-.05c.05,0,.09.02.12.05l1.59,1.59s.05.07.05.12c0,.05-.02.09-.05.12l-2.81,2.81Z"/>
      <path class="cls-1" d="M155.51,144.53c0-.48-.17-.89-.51-1.22l-1.83-1.83c-.34-.34-.75-.51-1.22-.51-.47,0-.88.17-1.22.51l-3.06,3.06c-.34.34-.51.74-.51,1.22,0,.48.17.88.51,1.22l1.83,1.83c.34.34.75.51,1.23.51.48,0,.89-.17,1.22-.5l3.06-3.06c.34-.34.51-.75.5-1.23ZM150.86,147.47c-.08.08-.17.09-.25,0l-1.59-1.59s-.05-.07-.05-.12c0-.05.02-.09.06-.13l2.81-2.81s.07-.05.12-.05c.05,0,.09.02.12.05l1.59,1.59s.05.07.05.12c0,.05-.02.09-.05.12l-2.81,2.81Z"/>
      <path class="cls-1" d="M161.3,138.74c0-.48-.17-.89-.51-1.22l-1.83-1.83c-.34-.34-.74-.51-1.22-.51-.47,0-.88.17-1.22.51l-3.06,3.06c-.34.34-.51.75-.51,1.22,0,.48.17.88.51,1.22l1.83,1.83c.34.34.75.51,1.23.51.48,0,.89-.17,1.22-.5l3.06-3.06c.34-.34.51-.75.5-1.23ZM156.65,141.68c-.08.08-.17.09-.25,0l-1.59-1.59s-.05-.07-.05-.12c0-.05.02-.09.06-.13l2.81-2.81s.07-.05.12-.05c.05,0,.09.02.12.05l1.59,1.59s.05.08.05.12c0,.05-.02.09-.05.12l-2.81,2.81Z"/>
      <path class="cls-1" d="M167.1,132.95c0-.48-.17-.89-.51-1.22l-1.83-1.83c-.34-.34-.75-.51-1.22-.51-.47,0-.88.17-1.22.51l-3.06,3.06c-.34.34-.51.75-.51,1.22,0,.48.17.88.51,1.22l1.83,1.83c.34.34.75.51,1.23.51.48,0,.89-.17,1.22-.5l3.06-3.06c.34-.34.51-.75.5-1.23ZM162.45,135.88c-.08.08-.17.09-.25,0l-1.59-1.59s-.05-.08-.05-.12c0-.05.02-.09.06-.13l2.81-2.81s.07-.05.12-.05c.05,0,.09.02.12.05l1.59,1.59s.05.08.05.12c0,.05-.02.09-.05.12l-2.81,2.81Z"/>
      <path class="cls-1" d="M172.83,127.62c.04-.15.06-.31.06-.47,0-.48-.17-.88-.51-1.22l-1.83-1.83c-.34-.34-.74-.51-1.22-.51-.47,0-.88.17-1.22.51l-3.06,3.06c-.34.34-.51.75-.51,1.22,0,.48.17.88.51,1.22l1.83,1.83c.34.34.75.51,1.23.51.48,0,.89-.17,1.22-.5l3.06-3.06c.22-.22.37-.47.44-.75ZM168.24,130.09c-.08.08-.17.09-.25,0l-1.59-1.59s-.05-.08-.05-.12c0-.05.02-.09.06-.13l2.81-2.81s.07-.05.12-.05c.05,0,.09.02.12.05l1.59,1.59s.05.08.05.12c0,.05-.02.09-.05.12l-2.81,2.81Z"/>
      <g>
        <path class="cls-1" d="M178.08,116.84l-7.09,7.09,1.57,1.57,7.09-7.09-1.57-1.57Z"/>
        <path class="cls-1" d="M185.47,109.45l-7.09,7.09,1.58,1.58,7.09-7.09-1.58-1.58Z"/>
        <path class="cls-1" d="M192.86,102.06l-7.09,7.09,1.58,1.58,7.09-7.09-1.58-1.58Z"/>
        <path class="cls-1" d="M200.25,94.67l-7.09,7.09,1.58,1.58,7.09-7.09-1.58-1.58Z"/>
        <path class="cls-1" d="M204.67,90.25l-4.12,4.12,1.58,1.58,2.78-2.78c-.06-.98-.14-1.95-.23-2.92Z"/>
      </g>
    </g>
    <g>
      <path class="cls-1" d="M127.99,149.84l-2.71,2.71,1.22,1.22,2.59-2.59s.07-.05.12-.05c.04,0,.09.02.12.05l1.59,1.59s.05.08.05.12c0,.05-.02.09-.05.12l-2.59,2.59,1.22,1.22,2.71-2.71c.34-.34.51-.74.51-1.22,0-.48-.17-.88-.51-1.22l-1.83-1.83c-.33-.33-.74-.51-1.22-.51-.48,0-.89.16-1.22.5Z"/>
      <g>
        <path class="cls-1" d="M111.85,168.68l-7.09,7.09,1.58,1.58,7.09-7.09-1.58-1.58Z"/>
        <path class="cls-1" d="M89.68,190.85l-.26.26c.23.05.45.1.68.15l-.42-.42Z"/>
        <path class="cls-1" d="M126.63,153.9l-7.09,7.09,1.58,1.58,7.09-7.09-1.58-1.58Z"/>
        <path class="cls-1" d="M119.24,161.29l-7.09,7.09,1.58,1.58,7.09-7.09-1.58-1.58Z"/>
        <path class="cls-1" d="M113.73,170.55l-7.09,7.09,1.57,1.57,7.09-7.09-1.57-1.57Z"/>
        <path class="cls-1" d="M106.33,177.94l-7.09,7.09,1.57,1.57,7.09-7.09-1.57-1.57Z"/>
        <path class="cls-1" d="M98.94,185.33l-6.44,6.44c.89.17,1.78.33,2.67.48l5.34-5.34-1.57-1.57Z"/>
        <path class="cls-1" d="M128.51,155.77l-7.09,7.09,1.57,1.57,7.09-7.09-1.57-1.57Z"/>
        <path class="cls-1" d="M121.12,163.16l-7.09,7.09,1.57,1.57,7.09-7.09-1.57-1.57Z"/>
        <path class="cls-1" d="M87.81,188.98l-1.39,1.39c.84.22,1.68.43,2.52.63l.45-.45-1.58-1.58Z"/>
        <path class="cls-1" d="M124.76,152.02l-7.09,7.09,1.58,1.58,7.09-7.09-1.58-1.58Z"/>
        <path class="cls-1" d="M117.37,159.41l-7.09,7.09,1.58,1.58,7.09-7.09-1.58-1.58Z"/>
        <path class="cls-1" d="M97.07,183.46l-7.09,7.09.88.88c.39.08.77.16,1.15.24l6.63-6.63-1.58-1.58Z"/>
        <path class="cls-1" d="M95.2,181.59l-7.09,7.09,1.58,1.58,7.09-7.09-1.58-1.58Z"/>
        <path class="cls-1" d="M104.46,176.07l-7.09,7.09,1.58,1.58,7.09-7.09-1.58-1.58Z"/>
        <path class="cls-1" d="M102.59,174.2l-7.09,7.09,1.58,1.58,7.09-7.09-1.58-1.58Z"/>
        <path class="cls-1" d="M109.98,166.8l-7.09,7.09,1.58,1.58,7.09-7.09-1.58-1.58Z"/>
      </g>
      <path class="cls-1" d="M133.77,144.06l-3.06,3.06c-.33.33-.5.74-.5,1.22,0,.48.17.89.51,1.23l1.83,1.83c.34.34.75.51,1.22.51.48,0,.88-.17,1.22-.51l3.06-3.06c.34-.34.51-.75.51-1.22,0-.48-.17-.88-.51-1.22l-1.83-1.83c-.33-.33-.74-.51-1.22-.51-.48,0-.89.16-1.23.5ZM134.87,145.4s.07-.05.12-.05c.05,0,.09.02.12.05l1.59,1.59s.05.07.05.12c0,.05-.02.09-.05.12l-2.81,2.81s-.08.06-.13.06c-.05,0-.09-.02-.12-.05l-1.59-1.59c-.08-.08-.08-.16,0-.25l2.81-2.81Z"/>
      <path class="cls-1" d="M139.57,138.27l-3.06,3.06c-.33.33-.5.74-.5,1.22,0,.48.17.89.51,1.23l1.83,1.83c.34.34.75.51,1.22.51.47,0,.88-.17,1.22-.51l3.06-3.06c.34-.34.51-.75.51-1.22,0-.48-.17-.88-.51-1.22l-1.83-1.83c-.33-.33-.74-.5-1.22-.51-.48,0-.89.16-1.23.5ZM140.67,139.61s.07-.05.12-.05c.05,0,.09.02.12.05l1.59,1.59s.05.07.05.12c0,.05-.02.09-.05.12l-2.81,2.81s-.08.06-.13.06-.09-.02-.12-.05l-1.59-1.59c-.08-.08-.08-.16,0-.25l2.81-2.81Z"/>
      <path class="cls-1" d="M145.36,132.48l-3.06,3.06c-.33.33-.5.74-.5,1.22,0,.48.17.89.51,1.23l1.83,1.83c.34.34.75.51,1.22.51s.88-.17,1.22-.51l3.06-3.06c.34-.34.51-.75.51-1.22s-.17-.88-.51-1.22l-1.83-1.83c-.33-.33-.74-.5-1.22-.51s-.89.16-1.23.5ZM146.47,133.82s.07-.05.12-.05c.05,0,.09.02.12.05l1.59,1.59s.05.08.05.12c0,.05-.02.09-.05.12l-2.81,2.81s-.08.06-.13.06c-.05,0-.09-.02-.12-.05l-1.59-1.59c-.08-.08-.08-.16,0-.25l2.81-2.81Z"/>
      <path class="cls-1" d="M151.16,126.69l-3.06,3.06c-.33.33-.5.74-.5,1.22,0,.48.17.89.51,1.23l1.83,1.83c.34.34.75.51,1.22.51.47,0,.88-.17,1.22-.51l3.06-3.06c.34-.34.51-.75.51-1.22,0-.47-.17-.88-.51-1.22l-1.83-1.83c-.33-.33-.74-.5-1.22-.51-.48,0-.89.16-1.23.5ZM152.26,128.03s.07-.05.12-.05c.05,0,.09.02.12.05l1.59,1.59s.05.08.05.12-.02.09-.05.12l-2.81,2.81s-.08.06-.13.06c-.05,0-.09-.02-.12-.05l-1.59-1.59c-.08-.08-.08-.16,0-.25l2.81-2.81Z"/>
      <path class="cls-1" d="M156.95,120.89l-3.06,3.06c-.34.34-.5.74-.5,1.22,0,.48.17.89.51,1.23l1.83,1.83c.34.34.75.51,1.22.51.47,0,.88-.17,1.22-.51l3.06-3.06c.34-.34.51-.75.51-1.22,0-.47-.17-.88-.51-1.22l-1.83-1.83c-.33-.33-.74-.5-1.22-.51-.48,0-.89.16-1.23.5ZM158.05,122.23s.07-.05.12-.05c.05,0,.09.02.12.05l1.59,1.59s.05.08.05.12c0,.05-.02.09-.05.12l-2.81,2.81s-.08.06-.13.06c-.05,0-.09-.02-.12-.05l-1.59-1.59c-.08-.08-.08-.16,0-.25l2.81-2.81Z"/>
      <path class="cls-1" d="M162.75,115.1l-3.06,3.06c-.34.34-.5.74-.5,1.22,0,.48.17.89.51,1.23l1.83,1.83c.34.34.75.51,1.22.51.48,0,.88-.17,1.22-.51l3.06-3.06c.31-.31.47-.66.5-1.08h0s0-.09,0-.14c0-.47-.17-.88-.51-1.22l-1.83-1.83c-.33-.33-.74-.5-1.22-.51-.48,0-.89.16-1.23.5ZM163.85,116.44s.07-.05.12-.05c.05,0,.09.02.12.05l1.59,1.59s.05.08.05.12c0,.05-.02.09-.05.12l-2.81,2.81s-.08.06-.13.06c-.05,0-.08-.02-.12-.05l-1.59-1.59c-.08-.08-.08-.16,0-.25l2.81-2.81Z"/>
      <path class="cls-1" d="M172.71,107.84l-7.09,7.09,1.57,1.57,7.09-7.09-1.57-1.57Z"/>
      <path class="cls-1" d="M180.1,100.45l-7.09,7.09,1.57,1.57,7.09-7.09-1.57-1.57Z"/>
      <path class="cls-1" d="M187.49,93.06l-7.09,7.09,1.57,1.57,7.09-7.09-1.57-1.57Z"/>
      <path class="cls-1" d="M194.88,85.66l-7.09,7.09,1.57,1.57,7.09-7.09-1.57-1.57Z"/>
      <path class="cls-1" d="M202.27,78.27l-7.09,7.09,1.57,1.57,6.43-6.43c-.11-.56-.23-1.12-.35-1.68l-.56-.56Z"/>
    </g>
    <g>
      <path class="cls-1" d="M116.55,146.82l4.24,4.24c.21-.29.32-.62.32-1,0-.48-.17-.88-.51-1.22l-1.83-1.83c-.33-.33-.74-.5-1.22-.51-.38,0-.71.1-1,.31Z"/>
      <g>
        <path class="cls-1" d="M103.1,162.93l-7.09,7.09,1.57,1.57,7.09-7.09-1.57-1.57Z"/>
        <path class="cls-1" d="M80.93,185.1l-2.69,2.69c.77.28,1.55.55,2.33.81l1.93-1.93-1.57-1.57Z"/>
        <path class="cls-1" d="M117.88,148.15l-7.09,7.09,1.57,1.57,7.09-7.09-1.57-1.57Z"/>
        <path class="cls-1" d="M110.49,155.54l-7.09,7.09,1.57,1.57,7.09-7.09-1.57-1.57Z"/>
        <path class="cls-1" d="M104.97,164.8l-7.09,7.09,1.57,1.57,7.09-7.09-1.57-1.57Z"/>
        <path class="cls-1" d="M97.58,172.2l-7.09,7.09,1.57,1.57,7.09-7.09-1.57-1.57Z"/>
        <path class="cls-1" d="M90.19,179.59l-7.09,7.09,1.57,1.57,7.09-7.09-1.57-1.57Z"/>
        <path class="cls-1" d="M82.8,186.98l-1.79,1.79c.8.26,1.59.51,2.4.75l.96-.96-1.57-1.57Z"/>
        <path class="cls-1" d="M119.75,150.02l-7.09,7.09,1.57,1.57,7.09-7.09-1.57-1.57Z"/>
        <path class="cls-1" d="M112.36,157.41l-7.09,7.09,1.57,1.57,7.09-7.09-1.57-1.57Z"/>
        <path class="cls-1" d="M79.06,183.23l-3.53,3.53c.75.3,1.51.6,2.27.88l2.83-2.83-1.57-1.57Z"/>
        <path class="cls-1" d="M116.01,146.28l-7.09,7.09,1.57,1.57,7.09-7.09-1.57-1.57Z"/>
        <path class="cls-1" d="M108.62,153.67l-7.09,7.09,1.57,1.57,7.09-7.09-1.57-1.57Z"/>
        <path class="cls-1" d="M88.32,177.71l-7.09,7.09,1.57,1.57,7.09-7.09-1.57-1.57Z"/>
        <path class="cls-1" d="M86.45,175.84l-7.09,7.09,1.57,1.57,7.09-7.09-1.57-1.57Z"/>
        <path class="cls-1" d="M95.71,170.32l-7.09,7.09,1.57,1.57,7.09-7.09-1.57-1.57Z"/>
        <path class="cls-1" d="M93.84,168.45l-7.09,7.09,1.57,1.57,7.09-7.09-1.57-1.57Z"/>
        <path class="cls-1" d="M101.23,161.06l-7.09,7.09,1.57,1.57,7.09-7.09-1.57-1.57Z"/>
      </g>
      <path class="cls-1" d="M122.12,141.21l-3.06,3.06c-.34.34-.5.74-.5,1.22,0,.48.17.89.51,1.22l1.83,1.83c.34.34.75.51,1.22.51.48,0,.88-.17,1.22-.51l3.06-3.06c.34-.34.51-.74.51-1.22,0-.47-.17-.88-.51-1.22l-1.83-1.83c-.33-.33-.74-.5-1.22-.51-.48,0-.89.16-1.23.5ZM123.22,142.55s.07-.05.12-.05c.05,0,.09.02.12.05l1.6,1.6s.05.07.05.12c0,.05-.02.09-.05.12l-2.81,2.81s-.08.06-.13.06c-.05,0-.09-.02-.12-.05l-1.6-1.6c-.08-.08-.08-.16,0-.25l2.81-2.81Z"/>
      <path class="cls-1" d="M127.91,135.42l-3.06,3.06c-.33.33-.5.74-.5,1.22,0,.48.17.89.51,1.22l1.83,1.83c.34.34.75.51,1.22.51.48,0,.88-.17,1.22-.51l3.06-3.06c.34-.34.51-.75.51-1.22,0-.48-.17-.88-.51-1.22l-1.83-1.83c-.33-.33-.74-.5-1.22-.51-.48,0-.89.16-1.23.5ZM129.01,136.76s.07-.05.12-.05c.05,0,.08.02.12.05l1.6,1.6s.05.07.05.12c0,.05-.02.09-.05.12l-2.81,2.81s-.08.06-.13.06c-.05,0-.09-.02-.12-.05l-1.6-1.6c-.08-.08-.08-.16,0-.25l2.81-2.81Z"/>
      <path class="cls-1" d="M133.72,129.63l-3.06,3.06c-.33.33-.5.74-.5,1.22,0,.48.17.89.51,1.23l1.83,1.83c.34.34.75.51,1.22.51.47,0,.88-.17,1.22-.51l3.06-3.06c.34-.34.51-.75.51-1.22,0-.48-.17-.88-.51-1.22l-1.83-1.83c-.34-.34-.74-.51-1.22-.51-.48,0-.89.16-1.23.5ZM134.81,130.97s.07-.05.12-.05.09.02.12.05l1.59,1.59s.05.07.05.12c0,.05-.02.08-.05.12l-2.81,2.81s-.08.06-.13.06c-.05,0-.09-.02-.12-.05l-1.59-1.59c-.08-.08-.08-.16,0-.25l2.81-2.81Z"/>
      <path class="cls-1" d="M139.51,123.84l-3.06,3.06c-.33.33-.5.74-.5,1.22,0,.48.17.89.51,1.23l1.83,1.83c.34.34.74.51,1.22.51.47,0,.88-.17,1.22-.51l3.06-3.06c.34-.34.51-.75.51-1.22,0-.48-.17-.88-.51-1.22l-1.83-1.83c-.34-.34-.74-.5-1.22-.51-.48,0-.89.16-1.23.5ZM140.61,125.18s.07-.05.12-.05c.05,0,.09.02.12.05l1.59,1.59s.05.08.05.12c0,.05-.02.09-.05.12l-2.81,2.81s-.08.06-.13.06c-.05,0-.09-.02-.12-.05l-1.59-1.59c-.08-.08-.08-.16,0-.25l2.81-2.81Z"/>
      <path class="cls-1" d="M145.3,118.04l-3.06,3.06c-.33.33-.5.74-.5,1.22,0,.48.17.89.51,1.23l1.83,1.83c.34.34.74.51,1.22.51.47,0,.88-.17,1.22-.51l3.06-3.06c.34-.34.51-.75.51-1.22,0-.48-.17-.88-.51-1.22l-1.83-1.83c-.34-.34-.74-.51-1.22-.51-.48,0-.89.16-1.23.5ZM146.4,119.38s.07-.05.12-.05c.05,0,.09.02.12.05l1.59,1.59s.05.08.05.12c0,.05-.02.09-.05.12l-2.81,2.81s-.08.06-.13.06c-.05,0-.09-.02-.12-.05l-1.59-1.59c-.08-.08-.08-.16,0-.25l2.81-2.81Z"/>
      <path class="cls-1" d="M151.1,112.25l-3.06,3.06c-.34.34-.5.74-.5,1.22,0,.48.17.89.51,1.23l1.83,1.83c.34.34.74.51,1.22.51.47,0,.88-.17,1.22-.51l3.06-3.06c.34-.34.51-.74.51-1.22,0-.48-.17-.88-.51-1.22l-1.83-1.83c-.34-.34-.74-.51-1.22-.51-.48,0-.89.16-1.23.5ZM152.19,113.59s.08-.05.12-.05c.05,0,.09.02.12.05l1.59,1.59s.05.08.05.12c0,.05-.02.09-.05.12l-2.81,2.81s-.08.06-.13.06c-.05,0-.09-.02-.12-.05l-1.59-1.59c-.08-.08-.08-.16,0-.25l2.81-2.81Z"/>
      <path class="cls-1" d="M156.89,106.45l-3.06,3.06c-.34.34-.5.74-.5,1.22,0,.48.17.89.51,1.23l1.83,1.83c.34.34.74.51,1.22.51.48,0,.88-.17,1.22-.51l3.06-3.06c.34-.34.51-.74.51-1.22,0-.05,0-.1,0-.15-.03-.41-.2-.77-.5-1.07l-1.83-1.83c-.34-.34-.74-.51-1.22-.51-.48,0-.89.16-1.23.5ZM157.99,107.8s.08-.05.12-.05.09.02.12.05l1.59,1.59s.05.08.05.12-.02.09-.05.12l-2.81,2.81s-.08.06-.13.06c-.05,0-.09-.02-.12-.05l-1.59-1.59c-.08-.08-.08-.16,0-.25l2.81-2.81Z"/>
      <g>
        <path class="cls-1" d="M166.85,99.19l-7.09,7.09,1.58,1.58,7.09-7.09-1.58-1.58Z"/>
        <path class="cls-1" d="M174.24,91.8l-7.09,7.09,1.58,1.58,7.09-7.09-1.58-1.58Z"/>
        <path class="cls-1" d="M181.63,84.41l-7.09,7.09,1.58,1.58,7.09-7.09-1.58-1.58Z"/>
        <path class="cls-1" d="M189.03,77.02l-7.09,7.09,1.58,1.58,7.09-7.09-1.58-1.58Z"/>
        <path class="cls-1" d="M196.42,69.63l-7.09,7.09,1.58,1.58,7.09-7.09-1.58-1.58Z"/>
        <path class="cls-1" d="M199.32,66.73l-2.6,2.6,1.57,1.57,1.84-1.84c-.26-.78-.53-1.56-.82-2.33Z"/>
      </g>
    </g>
    <g>
      <path class="cls-1" d="M110.19,138.7l-1.82,1.82,1.22,1.22,1.7-1.7s.07-.05.12-.05c.05,0,.09.02.12.05l1.59,1.59s.05.07.05.12c0,.05-.02.09-.05.12l-1.7,1.7,1.22,1.22,1.82-1.82c.34-.34.51-.75.51-1.22,0-.48-.17-.88-.51-1.22l-1.83-1.83c-.34-.34-.74-.51-1.22-.51-.48,0-.89.16-1.23.5Z"/>
      <g>
        <path class="cls-1" d="M94.93,156.65l-7.09,7.09,1.57,1.57,7.09-7.09-1.57-1.57Z"/>
        <path class="cls-1" d="M72.76,178.83l-4.59,4.59c.7.36,1.41.7,2.11,1.03l4.05-4.05-1.57-1.57Z"/>
        <path class="cls-1" d="M109.72,141.87l-7.09,7.09,1.57,1.57,7.09-7.09-1.57-1.57Z"/>
        <path class="cls-1" d="M102.32,149.27l-7.09,7.09,1.57,1.57,7.09-7.09-1.57-1.57Z"/>
        <path class="cls-1" d="M96.81,158.53l-7.09,7.09,1.57,1.57,7.09-7.09-1.57-1.57Z"/>
        <path class="cls-1" d="M89.41,165.92l-7.09,7.09,1.57,1.57,7.09-7.09-1.57-1.57Z"/>
        <path class="cls-1" d="M82.02,173.31l-7.09,7.09,1.57,1.57,7.09-7.09-1.57-1.57Z"/>
        <path class="cls-1" d="M74.63,180.7l-3.94,3.94c.72.34,1.44.66,2.17.98l3.35-3.35-1.57-1.57Z"/>
        <path class="cls-1" d="M111.59,143.74l-7.09,7.09,1.58,1.58,7.09-7.09-1.58-1.58Z"/>
        <path class="cls-1" d="M104.2,151.14l-7.09,7.09,1.57,1.57,7.09-7.09-1.57-1.57Z"/>
        <path class="cls-1" d="M70.89,176.96l-5.18,5.18c.69.37,1.37.73,2.06,1.08l4.69-4.69-1.57-1.57Z"/>
        <path class="cls-1" d="M107.84,140l-7.09,7.09,1.57,1.57,7.09-7.09-1.57-1.57Z"/>
        <path class="cls-1" d="M100.45,147.39l-7.09,7.09,1.57,1.57,7.09-7.09-1.57-1.57Z"/>
        <path class="cls-1" d="M80.15,171.44l-7.09,7.09,1.57,1.57,7.09-7.09-1.57-1.57Z"/>
        <path class="cls-1" d="M78.28,169.56l-7.09,7.09,1.57,1.57,7.09-7.09-1.57-1.57Z"/>
        <path class="cls-1" d="M87.54,164.05l-7.09,7.09,1.57,1.57,7.09-7.09-1.57-1.57Z"/>
        <path class="cls-1" d="M85.67,162.18l-7.09,7.09,1.57,1.57,7.09-7.09-1.57-1.57Z"/>
        <path class="cls-1" d="M93.06,154.78l-7.09,7.09,1.57,1.57,7.09-7.09-1.57-1.57Z"/>
      </g>
      <path class="cls-1" d="M115.96,132.92l-3.06,3.06c-.33.33-.5.74-.5,1.22,0,.48.17.89.51,1.23l1.83,1.83c.34.34.74.51,1.22.51.47,0,.88-.17,1.22-.51l3.06-3.06c.34-.34.51-.75.51-1.22,0-.48-.17-.88-.51-1.22l-1.83-1.83c-.34-.34-.74-.51-1.22-.51-.48,0-.89.16-1.23.5ZM117.06,134.26s.07-.05.12-.05c.05,0,.09.02.12.05l1.59,1.59s.05.07.05.12c0,.05-.02.09-.05.12l-2.81,2.81s-.08.06-.13.06c-.05,0-.09-.02-.12-.05l-1.59-1.59c-.08-.08-.08-.16,0-.25l2.81-2.81Z"/>
      <path class="cls-1" d="M121.75,127.12l-3.06,3.06c-.33.33-.5.74-.5,1.22,0,.48.17.89.51,1.23l1.83,1.83c.34.34.74.51,1.22.51.47,0,.88-.17,1.22-.51l3.06-3.06c.34-.34.51-.75.51-1.22,0-.48-.17-.88-.51-1.22l-1.83-1.83c-.34-.34-.74-.5-1.22-.51-.48,0-.89.16-1.23.5ZM122.85,128.46s.07-.05.12-.05c.05,0,.09.02.12.05l1.59,1.59s.05.08.05.12c0,.05-.02.09-.05.12l-2.81,2.81s-.08.06-.13.06-.09-.02-.12-.05l-1.59-1.59c-.08-.08-.08-.16,0-.25l2.81-2.81Z"/>
      <path class="cls-1" d="M127.55,121.34l-3.06,3.06c-.33.33-.5.74-.5,1.22,0,.48.17.89.51,1.23l1.83,1.83c.34.34.75.51,1.22.51.47,0,.88-.17,1.22-.51l3.06-3.06c.34-.34.51-.75.51-1.22,0-.47-.17-.88-.51-1.22l-1.83-1.83c-.33-.33-.74-.51-1.22-.51-.48,0-.89.16-1.23.5ZM128.65,122.67s.07-.05.12-.05c.05,0,.09.02.12.05l1.59,1.59s.05.08.05.12c0,.05-.02.09-.05.12l-2.81,2.81s-.08.06-.13.06c-.05,0-.09-.02-.12-.05l-1.59-1.59c-.08-.08-.08-.16,0-.25l2.81-2.81Z"/>
      <path class="cls-1" d="M133.35,115.54l-3.06,3.06c-.34.34-.5.74-.5,1.22,0,.48.17.89.51,1.23l1.83,1.83c.34.34.75.51,1.22.51.47,0,.88-.17,1.22-.51l3.06-3.06c.34-.34.51-.75.51-1.22,0-.47-.17-.88-.51-1.22l-1.83-1.83c-.33-.33-.74-.5-1.22-.51-.48,0-.89.16-1.23.5ZM134.44,116.88s.08-.05.12-.05c.05,0,.09.02.12.05l1.59,1.59s.05.08.05.12c0,.05-.02.09-.05.12l-2.81,2.81s-.08.06-.13.06c-.05,0-.09-.02-.12-.05l-1.59-1.59c-.08-.08-.08-.16,0-.25l2.81-2.81Z"/>
      <path class="cls-1" d="M139.14,109.75l-3.06,3.06c-.34.34-.5.74-.5,1.22,0,.48.17.89.51,1.23l1.83,1.83c.34.34.75.51,1.22.51.47,0,.88-.17,1.22-.51l3.06-3.06c.34-.34.51-.74.51-1.22,0-.47-.17-.88-.51-1.22l-1.83-1.83c-.33-.33-.74-.5-1.22-.51-.48,0-.89.16-1.23.5ZM140.24,111.09s.08-.05.12-.05c.05,0,.09.02.12.05l1.59,1.59s.05.08.05.12c0,.05-.02.09-.05.12l-2.81,2.81s-.08.06-.13.06c-.05,0-.08-.02-.12-.05l-1.59-1.59c-.08-.08-.08-.16,0-.25l2.81-2.81Z"/>
      <path class="cls-1" d="M144.93,103.95l-3.06,3.06c-.34.34-.5.74-.5,1.22,0,.48.17.89.51,1.23l1.83,1.83c.34.34.75.51,1.22.51.48,0,.88-.17,1.22-.51l3.06-3.06c.34-.34.51-.74.51-1.22,0-.47-.17-.88-.51-1.22l-1.83-1.83c-.33-.33-.74-.5-1.22-.51-.48,0-.89.16-1.23.5ZM146.03,105.29s.07-.05.12-.05c.05,0,.09.02.12.05l1.59,1.59s.05.08.05.12c0,.05-.02.09-.05.12l-2.81,2.81s-.08.05-.13.06c-.05,0-.08-.02-.12-.05l-1.59-1.59c-.08-.08-.08-.16,0-.25l2.81-2.81Z"/>
      <path class="cls-1" d="M150.73,98.16l-3.06,3.06c-.33.33-.5.74-.5,1.22,0,.48.17.89.51,1.23l1.83,1.83c.34.34.75.51,1.22.51.48,0,.88-.17,1.22-.51l3.06-3.06c.34-.34.51-.75.51-1.22,0-.11,0-.22-.03-.32-.06-.34-.22-.64-.48-.9l-1.83-1.83c-.33-.33-.74-.5-1.22-.51-.48,0-.89.16-1.23.5ZM151.83,99.5s.07-.05.12-.05c.05,0,.09.02.12.05l1.59,1.59s.05.07.05.12c0,.05-.02.09-.05.12l-2.81,2.81s-.08.06-.13.06c-.05,0-.09-.02-.12-.05l-1.59-1.59c-.08-.08-.08-.16,0-.25l2.81-2.81Z"/>
      <g>
        <path class="cls-1" d="M160.69,90.9l-7.09,7.09,1.57,1.57,7.09-7.09-1.57-1.57Z"/>
        <path class="cls-1" d="M168.08,83.51l-7.09,7.09,1.57,1.57,7.09-7.09-1.57-1.57Z"/>
        <path class="cls-1" d="M175.47,76.12l-7.09,7.09,1.57,1.57,7.09-7.09-1.57-1.57Z"/>
        <path class="cls-1" d="M182.86,68.73l-7.09,7.09,1.57,1.57,7.09-7.09-1.57-1.57Z"/>
        <path class="cls-1" d="M190.25,61.34l-7.09,7.09,1.57,1.57,7.09-7.09-1.57-1.57Z"/>
        <path class="cls-1" d="M194.97,56.62l-4.42,4.42,1.58,1.58,3.88-3.88c-.34-.71-.68-1.42-1.03-2.12Z"/>
      </g>
    </g>
    <g>
      <path class="cls-1" d="M103.62,130.84l-3.06,3.06,1.33,1.33c-.07-.08-.06-.16.02-.23l2.81-2.81s.07-.05.12-.05c.05,0,.09.02.12.05l1.59,1.59s.05.08.05.12c0,.05-.02.09-.05.12l-2.81,2.81s-.08.06-.13.06c-.05,0-.09-.02-.12-.05l1.34,1.34,3.06-3.06c.34-.34.51-.75.51-1.22,0-.47-.17-.88-.51-1.22l-1.83-1.83c-.34-.34-.74-.51-1.22-.51-.48,0-.89.16-1.23.5Z"/>
      <path class="cls-1" d="M103.61,130.83l-3.06,3.06,1.33,1.33c-.07-.08-.06-.16.02-.23l2.81-2.81s.07-.05.12-.05c.05,0,.09.02.12.05l1.59,1.59s.05.08.05.12c0,.05-.02.09-.05.12l-2.81,2.81s-.08.06-.13.06c-.05,0-.09-.02-.12-.05l1.34,1.34,3.06-3.06c.34-.34.51-.75.51-1.22,0-.47-.17-.88-.51-1.22l-1.83-1.83c-.34-.34-.74-.51-1.22-.51-.48,0-.89.16-1.23.5Z"/>
      <g>
        <path class="cls-1" d="M87.11,150l-7.09,7.09,1.57,1.57,7.09-7.09-1.57-1.57Z"/>
        <path class="cls-1" d="M64.94,172.18l-5.97,5.97c.64.42,1.28.82,1.92,1.23l5.62-5.62-1.57-1.57Z"/>
        <path class="cls-1" d="M101.89,135.22l-7.09,7.09,1.57,1.57,7.09-7.09-1.57-1.57Z"/>
        <path class="cls-1" d="M94.5,142.61l-7.09,7.09,1.57,1.57,7.09-7.09-1.57-1.57Z"/>
        <path class="cls-1" d="M88.98,151.88l-7.09,7.09,1.57,1.57,7.09-7.09-1.57-1.57Z"/>
        <path class="cls-1" d="M81.59,159.27l-7.09,7.09,1.57,1.57,7.09-7.09-1.57-1.57Z"/>
        <path class="cls-1" d="M74.2,166.66l-7.09,7.09,1.57,1.57,7.09-7.09-1.57-1.57Z"/>
        <path class="cls-1" d="M66.81,174.05l-5.55,5.55c.65.4,1.31.79,1.97,1.18l5.15-5.15-1.57-1.57Z"/>
        <path class="cls-1" d="M103.76,137.09l-7.09,7.09,1.58,1.58,7.09-7.09-1.58-1.58Z"/>
        <path class="cls-1" d="M96.37,144.48l-7.09,7.09,1.57,1.57,7.09-7.09-1.57-1.57Z"/>
        <path class="cls-1" d="M63.06,170.3l-6.33,6.33c.62.43,1.25.86,1.87,1.27l6.03-6.03-1.57-1.57Z"/>
        <path class="cls-1" d="M100.02,133.35l-7.09,7.09,1.57,1.57,7.09-7.09-1.57-1.57Z"/>
        <path class="cls-1" d="M92.63,140.74l-7.09,7.09,1.57,1.57,7.09-7.09-1.57-1.57Z"/>
        <path class="cls-1" d="M72.33,164.78l-7.09,7.09,1.57,1.57,7.09-7.09-1.57-1.57Z"/>
        <path class="cls-1" d="M70.45,162.91l-7.09,7.09,1.57,1.57,7.09-7.09-1.57-1.57Z"/>
        <path class="cls-1" d="M79.72,157.39l-7.09,7.09,1.57,1.57,7.09-7.09-1.57-1.57Z"/>
        <path class="cls-1" d="M77.84,155.52l-7.09,7.09,1.57,1.57,7.09-7.09-1.57-1.57Z"/>
        <path class="cls-1" d="M85.24,148.13l-7.09,7.09,1.57,1.57,7.09-7.09-1.57-1.57Z"/>
      </g>
      <path class="cls-1" d="M109.4,125.04l-3.06,3.06c-.34.34-.5.74-.5,1.22,0,.48.17.89.51,1.23l1.83,1.83c.34.34.75.51,1.22.51.47,0,.88-.17,1.22-.51l3.06-3.06c.34-.34.51-.75.51-1.22,0-.48-.17-.88-.51-1.22l-1.83-1.83c-.34-.34-.74-.51-1.22-.51-.48,0-.89.16-1.23.5ZM110.5,126.38s.08-.05.12-.05.09.02.12.05l1.59,1.59s.05.07.05.12c0,.05-.02.08-.05.12l-2.81,2.81s-.08.06-.13.06c-.05,0-.09-.02-.12-.05l-1.59-1.59c-.08-.08-.08-.16,0-.25l2.81-2.81Z"/>
      <path class="cls-1" d="M115.2,119.24l-3.06,3.06c-.34.34-.5.74-.5,1.22,0,.48.17.89.51,1.23l1.83,1.83c.34.34.75.51,1.22.51.47,0,.88-.17,1.22-.51l3.06-3.06c.34-.34.51-.74.51-1.22,0-.48-.17-.88-.51-1.22l-1.83-1.83c-.34-.34-.74-.51-1.22-.51-.48,0-.89.16-1.23.5ZM116.3,120.58s.08-.05.12-.05c.05,0,.09.02.12.05l1.59,1.59s.05.07.05.12c0,.05-.02.09-.05.12l-2.81,2.81s-.08.06-.13.06c-.05,0-.09-.02-.12-.05l-1.59-1.59c-.08-.08-.08-.16,0-.25l2.81-2.81Z"/>
      <path class="cls-1" d="M121,113.46l-3.06,3.06c-.34.34-.5.74-.5,1.22,0,.48.17.89.51,1.23l1.83,1.83c.34.34.74.51,1.22.51.48,0,.88-.17,1.22-.51l3.06-3.06c.34-.34.51-.74.51-1.22,0-.48-.17-.88-.51-1.22l-1.83-1.83c-.34-.34-.74-.51-1.22-.51-.48,0-.89.16-1.23.5ZM122.1,114.8s.07-.05.12-.05c.05,0,.09.02.12.05l1.59,1.59s.05.08.05.12c0,.05-.02.09-.05.12l-2.81,2.81s-.08.05-.13.06c-.05,0-.09-.02-.12-.05l-1.59-1.59c-.08-.08-.08-.16,0-.25l2.81-2.81Z"/>
      <path class="cls-1" d="M126.79,107.66l-3.06,3.06c-.33.33-.5.74-.5,1.22,0,.48.17.89.51,1.23l1.83,1.83c.34.34.75.51,1.22.51.48,0,.88-.17,1.22-.51l3.06-3.06c.34-.34.51-.75.51-1.22,0-.48-.17-.88-.51-1.22l-1.83-1.83c-.34-.34-.74-.51-1.22-.51-.48,0-.89.16-1.23.5ZM127.89,109s.07-.05.12-.05c.05,0,.09.02.12.05l1.59,1.59s.05.07.05.12c0,.05-.02.09-.05.12l-2.81,2.81s-.08.06-.13.06-.09-.02-.12-.05l-1.59-1.59c-.08-.08-.08-.16,0-.25l2.81-2.81Z"/>
      <path class="cls-1" d="M132.59,101.87l-3.06,3.06c-.33.33-.5.74-.5,1.22,0,.48.17.89.51,1.23l1.83,1.83c.34.34.75.51,1.22.51.47,0,.88-.17,1.22-.51l3.06-3.06c.34-.34.51-.75.51-1.22,0-.48-.17-.88-.51-1.22l-1.83-1.83c-.34-.34-.74-.51-1.22-.51-.48,0-.89.16-1.23.5ZM133.69,103.21s.07-.05.12-.05c.05,0,.09.02.12.05l1.59,1.59s.05.07.05.12c0,.05-.02.09-.05.12l-2.81,2.81s-.08.06-.13.06c-.05,0-.09-.02-.12-.05l-1.59-1.59c-.08-.08-.08-.16,0-.25l2.81-2.81Z"/>
      <path class="cls-1" d="M138.38,96.08l-3.06,3.06c-.33.33-.5.74-.5,1.22,0,.48.17.89.51,1.23l1.83,1.83c.34.34.75.51,1.22.51.47,0,.88-.17,1.22-.51l3.06-3.06c.34-.34.51-.75.51-1.22,0-.47-.17-.88-.51-1.22l-1.83-1.83c-.33-.33-.74-.5-1.22-.51-.48,0-.89.16-1.23.5ZM139.48,97.41s.07-.05.12-.05.09.02.12.05l1.59,1.59s.05.08.05.12-.02.09-.05.12l-2.81,2.81s-.08.06-.13.06c-.05,0-.09-.02-.12-.05l-1.59-1.59c-.08-.08-.08-.16,0-.25l2.81-2.81Z"/>
      <path class="cls-1" d="M144.18,90.28l-3.06,3.06c-.33.33-.5.74-.5,1.22,0,.48.17.89.51,1.23l1.83,1.83c.34.34.75.51,1.22.51.47,0,.88-.17,1.22-.51l3.06-3.06c.34-.34.51-.75.51-1.22,0-.21-.03-.4-.1-.59-.08-.23-.22-.44-.41-.63l-1.83-1.83c-.33-.33-.74-.51-1.22-.51-.48,0-.89.16-1.23.5ZM145.27,91.62s.07-.05.12-.05c.05,0,.09.02.12.05l1.59,1.59s.05.08.05.12c0,.05-.02.09-.05.12l-2.81,2.81s-.08.06-.13.06c-.05,0-.09-.02-.12-.05l-1.59-1.59c-.08-.08-.08-.16,0-.25l2.81-2.81Z"/>
      <g>
        <path class="cls-1" d="M154.14,83.02l-7.09,7.09,1.58,1.58,7.09-7.09-1.58-1.58Z"/>
        <path class="cls-1" d="M161.53,75.63l-7.09,7.09,1.58,1.58,7.09-7.09-1.58-1.58Z"/>
        <path class="cls-1" d="M168.92,68.24l-7.09,7.09,1.58,1.58,7.09-7.09-1.58-1.58Z"/>
        <path class="cls-1" d="M176.31,60.85l-7.09,7.09,1.58,1.58,7.09-7.09-1.58-1.58Z"/>
        <path class="cls-1" d="M183.7,53.46l-7.09,7.09,1.58,1.58,7.09-7.09-1.58-1.58Z"/>
        <path class="cls-1" d="M189.67,47.49l-5.67,5.67,1.58,1.58,5.32-5.32c-.4-.65-.81-1.29-1.23-1.93Z"/>
      </g>
    </g>
    <g>
      <path class="cls-1" d="M60.45,80.6c0-.48-.17-.89-.51-1.22l-1.83-1.83c-.34-.34-.74-.51-1.22-.51-.47,0-.88.17-1.22.51l-2.71,2.71,1.22,1.22,2.59-2.59s.07-.05.12-.05c.04,0,.09.02.12.05l1.59,1.59s.05.08.05.12c0,.05-.02.09-.05.12l-2.59,2.59,1.22,1.22,2.71-2.71c.34-.34.51-.75.5-1.22Z"/>
      <g>
        <path class="cls-1" d="M39.53,96.39l-7.09,7.09,1.58,1.58,7.09-7.09-1.58-1.58Z"/>
        <path class="cls-1" d="M18.52,119.72c.05.23.1.45.15.68l.26-.26-.42-.42Z"/>
        <path class="cls-1" d="M54.31,81.61l-7.09,7.09,1.58,1.58,7.09-7.09-1.58-1.58Z"/>
        <path class="cls-1" d="M46.92,89l-7.09,7.09,1.58,1.58,7.09-7.09-1.58-1.58Z"/>
        <path class="cls-1" d="M37.66,94.52l-7.09,7.09,1.57,1.57,7.09-7.09-1.57-1.57Z"/>
        <path class="cls-1" d="M30.27,101.91l-7.09,7.09,1.57,1.57,7.09-7.09-1.57-1.57Z"/>
        <path class="cls-1" d="M22.88,109.3l-5.34,5.34c.15.89.3,1.78.48,2.67l6.44-6.44-1.57-1.57Z"/>
        <path class="cls-1" d="M52.44,79.74l-7.09,7.09,1.57,1.57,7.09-7.09-1.57-1.57Z"/>
        <path class="cls-1" d="M45.05,87.13l-7.09,7.09,1.57,1.57,7.09-7.09-1.57-1.57Z"/>
        <path class="cls-1" d="M19.23,120.43l-.45.45c.2.84.41,1.68.63,2.52l1.39-1.39-1.58-1.58Z"/>
        <path class="cls-1" d="M56.19,83.48l-7.09,7.09,1.58,1.58,7.09-7.09-1.58-1.58Z"/>
        <path class="cls-1" d="M48.79,90.87l-7.09,7.09,1.58,1.58,7.09-7.09-1.58-1.58Z"/>
        <path class="cls-1" d="M24.75,111.17l-6.63,6.63c.08.38.16.77.24,1.15l.88.88,7.09-7.09-1.58-1.58Z"/>
        <path class="cls-1" d="M26.62,113.04l-7.09,7.09,1.58,1.58,7.09-7.09-1.58-1.58Z"/>
        <path class="cls-1" d="M32.14,103.78l-7.09,7.09,1.58,1.58,7.09-7.09-1.58-1.58Z"/>
        <path class="cls-1" d="M34.01,105.65l-7.09,7.09,1.58,1.58,7.09-7.09-1.58-1.58Z"/>
        <path class="cls-1" d="M41.41,98.26l-7.09,7.09,1.58,1.58,7.09-7.09-1.58-1.58Z"/>
      </g>
      <path class="cls-1" d="M66.23,74.82c0-.48-.17-.89-.51-1.22l-1.83-1.83c-.34-.34-.75-.51-1.22-.51-.47,0-.88.17-1.22.51l-3.06,3.06c-.34.34-.51.74-.51,1.22,0,.47.17.88.51,1.22l1.83,1.83c.34.34.75.51,1.23.51.48,0,.88-.17,1.22-.5l3.06-3.06c.34-.34.51-.75.5-1.23ZM61.58,77.76c-.08.08-.17.09-.25,0l-1.59-1.59s-.05-.08-.05-.12c0-.05.02-.09.06-.13l2.81-2.81s.07-.05.12-.05c.05,0,.09.02.12.05l1.59,1.59s.05.07.05.12c0,.05-.02.09-.05.12l-2.81,2.81Z"/>
      <path class="cls-1" d="M72.01,69.02c0-.48-.17-.89-.51-1.22l-1.83-1.83c-.34-.34-.75-.51-1.22-.51-.47,0-.88.17-1.22.51l-3.06,3.06c-.34.34-.51.75-.51,1.22,0,.47.17.88.51,1.22l1.83,1.83c.34.34.75.51,1.23.51.48,0,.89-.17,1.22-.5l3.06-3.06c.34-.34.51-.75.5-1.23ZM67.36,71.96c-.08.08-.17.09-.25,0l-1.59-1.59s-.05-.08-.05-.12.02-.09.06-.13l2.81-2.81s.07-.05.12-.05c.05,0,.09.02.12.05l1.59,1.59s.05.07.05.12c0,.05-.02.08-.05.12l-2.81,2.81Z"/>
      <path class="cls-1" d="M77.81,63.23c0-.48-.17-.89-.51-1.22l-1.83-1.83c-.34-.34-.75-.51-1.22-.51s-.88.17-1.22.51l-3.06,3.06c-.34.34-.51.75-.51,1.22s.17.88.51,1.22l1.83,1.83c.34.34.75.51,1.23.51.48,0,.89-.17,1.22-.5l3.06-3.06c.34-.34.51-.75.5-1.23ZM73.16,66.16c-.08.08-.17.09-.25,0l-1.59-1.59s-.05-.08-.05-.12c0-.05.02-.09.06-.13l2.81-2.81s.07-.05.12-.05c.05,0,.09.02.12.05l1.59,1.59s.05.07.05.12c0,.05-.02.08-.05.12l-2.81,2.81Z"/>
      <path class="cls-1" d="M83.6,57.43c0-.48-.17-.88-.51-1.22l-1.83-1.83c-.34-.34-.75-.51-1.22-.51-.47,0-.88.17-1.22.51l-3.06,3.06c-.34.34-.51.75-.51,1.22,0,.47.17.88.51,1.22l1.83,1.83c.34.34.75.51,1.23.51.48,0,.89-.17,1.22-.5l3.06-3.06c.34-.34.51-.75.5-1.23ZM78.95,60.37c-.08.08-.17.09-.25,0l-1.59-1.59s-.05-.08-.05-.12c0-.05.02-.09.06-.13l2.81-2.81s.07-.05.12-.05.09.02.12.05l1.59,1.59s.05.07.05.12c0,.05-.02.08-.05.12l-2.81,2.81Z"/>
      <path class="cls-1" d="M89.39,51.64c0-.48-.17-.89-.51-1.22l-1.83-1.83c-.34-.34-.75-.51-1.22-.51-.47,0-.88.17-1.22.51l-3.06,3.06c-.34.34-.51.75-.51,1.22,0,.48.17.88.51,1.22l1.83,1.83c.34.34.75.51,1.23.51.48,0,.88-.17,1.22-.5l3.06-3.06c.34-.34.51-.75.5-1.23ZM84.74,54.57c-.08.08-.17.09-.25,0l-1.59-1.59s-.05-.07-.05-.12c0-.05.02-.09.06-.13l2.81-2.81s.08-.05.12-.05c.05,0,.09.02.12.05l1.59,1.59s.05.07.05.12c0,.05-.02.08-.05.12l-2.81,2.81Z"/>
      <path class="cls-1" d="M95.19,45.84c0-.48-.17-.89-.51-1.22l-1.83-1.83c-.34-.34-.75-.51-1.22-.51-.05,0-.09,0-.14,0h0c-.42.03-.78.2-1.08.5l-3.06,3.06c-.34.34-.51.75-.51,1.22,0,.48.17.88.51,1.22l1.83,1.83c.34.34.75.51,1.23.51.48,0,.89-.17,1.22-.5l3.06-3.06c.34-.34.51-.75.5-1.23ZM90.54,48.78c-.08.08-.17.09-.25,0l-1.59-1.59s-.05-.07-.05-.12c0-.05.02-.09.06-.13l2.81-2.81s.08-.05.12-.05c.05,0,.09.02.12.05l1.59,1.59s.05.07.05.12c0,.05-.02.09-.05.12l-2.81,2.81Z"/>
      <path class="cls-1" d="M100.37,35.54l-7.09,7.09,1.57,1.57,7.09-7.09-1.57-1.57Z"/>
      <path class="cls-1" d="M107.76,28.14l-7.09,7.09,1.57,1.57,7.09-7.09-1.57-1.57Z"/>
      <path class="cls-1" d="M115.15,20.75l-7.09,7.09,1.57,1.57,7.09-7.09-1.57-1.57Z"/>
      <path class="cls-1" d="M122.55,13.36l-7.09,7.09,1.57,1.57,7.09-7.09-1.57-1.57Z"/>
      <path class="cls-1" d="M130.95,6.99c-.56-.12-1.12-.24-1.68-.35l-6.43,6.43,1.57,1.57,7.09-7.09-.56-.56Z"/>
    </g>
    <g>
      <path class="cls-1" d="M51.09,74.33s-.04-.07-.07-.11c-.03-.05-.07-.09-.11-.14-.03-.04-.07-.08-.11-.12l-1.84-1.84c-.21-.21-.45-.35-.71-.43l2.97,2.97c-.03-.11-.08-.23-.14-.33Z"/>
      <g>
        <path class="cls-1" d="M34.2,87.19l-7.09,7.09,1.58,1.58,7.09-7.09-1.58-1.58Z"/>
        <path class="cls-1" d="M48.98,72.41l-7.09,7.09,1.58,1.58,7.09-7.09-1.58-1.58Z"/>
        <path class="cls-1" d="M41.59,79.8l-7.09,7.09,1.58,1.58,7.09-7.09-1.58-1.58Z"/>
        <path class="cls-1" d="M36.07,89.07l-7.09,7.09,1.57,1.57,7.09-7.09-1.57-1.57Z"/>
        <path class="cls-1" d="M28.68,96.46l-7.09,7.09,1.57,1.57,7.09-7.09-1.57-1.57Z"/>
        <path class="cls-1" d="M21.29,103.85l-4.7,4.7c.09.94.2,1.88.33,2.82l5.95-5.95-1.57-1.57Z"/>
        <path class="cls-1" d="M50.85,74.28l-7.09,7.09,1.57,1.57,7.09-7.09-1.57-1.57Z"/>
        <path class="cls-1" d="M43.46,81.67l-7.09,7.09,1.57,1.57,7.09-7.09-1.57-1.57Z"/>
        <path class="cls-1" d="M47.11,70.54l-7.09,7.09,1.58,1.58,7.09-7.09-1.58-1.58Z"/>
        <path class="cls-1" d="M39.72,77.93l-7.09,7.09,1.58,1.58,7.09-7.09-1.58-1.58Z"/>
        <path class="cls-1" d="M19.42,101.97l-3.11,3.11c.06.98.14,1.95.23,2.92l4.45-4.45-1.58-1.58Z"/>
        <path class="cls-1" d="M17.54,100.1l-1.39,1.39c.03,1.01.07,2.02.13,3.02l2.84-2.84-1.58-1.58Z"/>
        <path class="cls-1" d="M26.81,94.58l-7.09,7.09,1.58,1.58,7.09-7.09-1.58-1.58Z"/>
        <path class="cls-1" d="M24.93,92.71l-7.09,7.09,1.58,1.58,7.09-7.09-1.58-1.58Z"/>
        <path class="cls-1" d="M32.33,85.32l-7.09,7.09,1.58,1.58,7.09-7.09-1.58-1.58Z"/>
      </g>
      <path class="cls-1" d="M52.34,66.35l-3.06,3.06c-.34.34-.5.74-.5,1.22,0,.48.17.89.51,1.23l1.83,1.83c.34.34.75.51,1.22.51.48,0,.88-.17,1.22-.51l3.06-3.06c.34-.34.51-.74.51-1.22,0-.47-.17-.88-.51-1.22l-1.83-1.83c-.33-.33-.74-.5-1.22-.51-.48,0-.89.16-1.23.5ZM53.44,67.69s.07-.05.12-.05c.05,0,.09.02.12.05l1.6,1.6s.05.07.05.12c0,.05-.02.09-.05.12l-2.81,2.81s-.08.06-.13.06c-.05,0-.08-.02-.12-.05l-1.6-1.6c-.08-.08-.08-.16,0-.25l2.81-2.81Z"/>
      <path class="cls-1" d="M58.14,60.56l-3.05,3.05c-.34.34-.5.74-.5,1.22,0,.48.17.89.51,1.23l1.83,1.83c.34.34.75.51,1.22.51.48,0,.88-.17,1.22-.51l3.05-3.05c.34-.34.51-.75.51-1.22,0-.48-.17-.88-.51-1.22l-1.83-1.83c-.34-.34-.74-.51-1.22-.51-.48,0-.89.16-1.23.5ZM59.24,61.9s.07-.05.12-.05c.05,0,.08.02.12.05l1.59,1.59s.05.07.05.12c0,.05-.02.09-.05.12l-2.81,2.81s-.08.06-.13.06c-.05,0-.09-.02-.12-.05l-1.59-1.59c-.08-.08-.08-.16,0-.25l2.81-2.81Z"/>
      <path class="cls-1" d="M63.94,54.77l-3.06,3.06c-.33.33-.5.74-.5,1.22,0,.48.17.89.51,1.23l1.83,1.83c.34.34.75.51,1.22.51.48,0,.88-.17,1.22-.51l3.06-3.06c.34-.34.51-.75.51-1.22,0-.48-.17-.88-.51-1.22l-1.83-1.83c-.34-.34-.74-.51-1.22-.51-.48,0-.89.16-1.23.5ZM65.04,56.11s.07-.05.12-.05c.05,0,.08.02.12.05l1.59,1.59s.05.07.05.12c0,.05-.02.09-.05.12l-2.81,2.81s-.08.06-.13.06c-.05,0-.09-.02-.12-.05l-1.59-1.59c-.08-.08-.08-.16,0-.25l2.81-2.81Z"/>
      <path class="cls-1" d="M69.73,48.98l-3.06,3.06c-.33.33-.5.74-.5,1.22,0,.48.17.89.51,1.23l1.83,1.83c.34.34.74.51,1.22.51.47,0,.88-.17,1.22-.51l3.06-3.06c.34-.34.51-.75.51-1.22,0-.48-.17-.88-.51-1.22l-1.83-1.83c-.34-.34-.74-.51-1.22-.51-.48,0-.89.16-1.23.5ZM70.83,50.31s.07-.05.12-.05c.05,0,.09.02.12.05l1.59,1.59s.05.07.05.12c0,.05-.02.09-.05.12l-2.81,2.81s-.08.06-.13.06c-.05,0-.09-.02-.12-.05l-1.59-1.59c-.08-.08-.08-.16,0-.25l2.81-2.81Z"/>
      <path class="cls-1" d="M75.53,43.18l-3.06,3.06c-.33.33-.5.74-.5,1.22,0,.48.17.89.51,1.23l1.83,1.83c.34.34.74.51,1.22.51.47,0,.88-.17,1.22-.51l3.06-3.06c.34-.34.51-.75.51-1.22,0-.48-.17-.88-.51-1.22l-1.83-1.83c-.34-.34-.74-.5-1.22-.51-.48,0-.89.16-1.23.5ZM76.63,44.52s.07-.05.12-.05c.05,0,.09.02.12.05l1.59,1.59s.05.08.05.12c0,.05-.02.09-.05.12l-2.81,2.81s-.08.06-.13.06c-.05,0-.09-.02-.12-.05l-1.59-1.59c-.08-.08-.08-.16,0-.25l2.81-2.81Z"/>
      <path class="cls-1" d="M81.32,37.39l-3.06,3.06c-.33.33-.5.74-.5,1.22,0,.48.17.89.51,1.23l1.83,1.83c.34.34.74.51,1.22.51.47,0,.88-.17,1.22-.51l3.06-3.06c.34-.34.51-.75.51-1.22,0-.48-.17-.88-.51-1.22l-1.83-1.83c-.34-.34-.74-.51-1.22-.51-.16,0-.32.02-.47.06-.28.07-.53.22-.75.44ZM82.42,38.73s.07-.05.12-.05c.05,0,.09.02.12.05l1.59,1.59s.05.08.05.12c0,.05-.02.09-.05.12l-2.81,2.81s-.08.06-.13.06c-.05,0-.09-.02-.12-.05l-1.59-1.59c-.08-.08-.08-.16,0-.25l2.81-2.81Z"/>
      <g>
        <path class="cls-1" d="M91.28,30.13l-7.09,7.09,1.57,1.57,7.09-7.09-1.57-1.57Z"/>
        <path class="cls-1" d="M98.67,22.73l-7.09,7.09,1.58,1.58,7.09-7.09-1.58-1.58Z"/>
        <path class="cls-1" d="M106.06,15.34l-7.09,7.09,1.58,1.58,7.09-7.09-1.58-1.58Z"/>
        <path class="cls-1" d="M113.46,7.95l-7.09,7.09,1.58,1.58,7.09-7.09-1.58-1.58Z"/>
        <path class="cls-1" d="M116.53,4.88l-2.78,2.78,1.58,1.58,4.12-4.12c-.97-.09-1.94-.17-2.92-.23Z"/>
      </g>
    </g>
    <g>
      <path class="cls-1" d="M47.1,65.7l-4.24-4.24c.29-.21.61-.31.98-.31.48,0,.88.17,1.22.51l1.83,1.83c.33.33.5.74.51,1.22,0,.37-.1.7-.3.99Z"/>
      <g>
        <path class="cls-1" d="M29.41,77.57l-7.09,7.09,1.58,1.58,7.09-7.09-1.58-1.58Z"/>
        <path class="cls-1" d="M44.2,62.79l-7.09,7.09,1.58,1.58,7.09-7.09-1.58-1.58Z"/>
        <path class="cls-1" d="M36.8,70.19l-7.09,7.09,1.58,1.58,7.09-7.09-1.58-1.58Z"/>
        <path class="cls-1" d="M27.54,75.7l-7.09,7.09,1.58,1.58,7.09-7.09-1.58-1.58Z"/>
        <path class="cls-1" d="M20.15,83.09l-2.95,2.95c-.17,1.19-.31,2.39-.43,3.58l4.96-4.96-1.58-1.58Z"/>
        <path class="cls-1" d="M42.33,60.92l-7.09,7.09,1.57,1.57,7.09-7.09-1.57-1.57Z"/>
        <path class="cls-1" d="M34.93,68.31l-7.09,7.09,1.58,1.58,7.09-7.09-1.58-1.58Z"/>
        <path class="cls-1" d="M46.07,64.67l-7.09,7.09,1.57,1.57,7.09-7.09-1.57-1.57Z"/>
        <path class="cls-1" d="M38.68,72.06l-7.09,7.09,1.57,1.57,7.09-7.09-1.57-1.57Z"/>
        <path class="cls-1" d="M16.51,94.23l-.09.09c-.06,1.09-.1,2.17-.11,3.26l1.78-1.78-1.57-1.57Z"/>
        <path class="cls-1" d="M22.02,84.97l-5.32,5.32c-.1,1.1-.19,2.2-.25,3.3l.05.05,7.09-7.09-1.58-1.58Z"/>
        <path class="cls-1" d="M23.9,86.84l-7.09,7.09,1.57,1.57,7.09-7.09-1.57-1.57Z"/>
        <path class="cls-1" d="M31.29,79.45l-7.09,7.09,1.57,1.57,7.09-7.09-1.57-1.57Z"/>
      </g>
      <path class="cls-1" d="M53.2,58.9c0-.48-.17-.89-.51-1.22l-1.83-1.83c-.34-.34-.75-.51-1.22-.51-.48,0-.88.17-1.22.51l-3.06,3.06c-.34.34-.51.75-.51,1.22,0,.47.17.88.51,1.22l1.83,1.83c.34.34.75.51,1.23.51.48,0,.89-.17,1.22-.5l3.06-3.06c.34-.34.51-.75.5-1.23ZM48.55,61.84c-.08.08-.17.09-.25,0l-1.59-1.59s-.05-.08-.05-.12c0-.04.02-.09.06-.13l2.81-2.81s.08-.05.12-.05c.05,0,.09.02.12.05l1.59,1.59s.05.07.05.12c0,.05-.02.09-.05.12l-2.81,2.81Z"/>
      <path class="cls-1" d="M58.99,53.11c0-.48-.17-.89-.51-1.22l-1.83-1.83c-.34-.34-.75-.51-1.22-.51-.47,0-.88.17-1.22.51l-3.06,3.06c-.34.34-.51.75-.51,1.22,0,.47.17.88.51,1.22l1.83,1.83c.34.34.75.51,1.23.51.48,0,.88-.17,1.22-.5l3.06-3.06c.34-.34.51-.75.5-1.23ZM54.34,56.05c-.08.08-.17.09-.25,0l-1.59-1.59s-.05-.08-.05-.12c0-.05.02-.09.06-.13l2.81-2.81s.07-.05.12-.05.09.02.12.05l1.59,1.59s.05.07.05.12c0,.05-.02.08-.05.12l-2.81,2.81Z"/>
      <path class="cls-1" d="M64.78,47.32c0-.48-.17-.89-.51-1.22l-1.83-1.83c-.34-.34-.75-.51-1.22-.51-.47,0-.88.17-1.22.51l-3.06,3.06c-.34.34-.51.75-.51,1.22,0,.47.17.88.51,1.22l1.83,1.83c.34.34.75.51,1.23.51.48,0,.88-.17,1.22-.5l3.06-3.06c.34-.34.51-.75.5-1.23ZM60.13,50.25c-.08.08-.17.09-.25,0l-1.59-1.59s-.05-.08-.05-.12c0-.05.02-.09.06-.13l2.81-2.81s.07-.05.12-.05.09.02.12.05l1.59,1.59s.05.07.05.12c0,.05-.02.08-.05.12l-2.81,2.81Z"/>
      <path class="cls-1" d="M70.58,41.52c0-.48-.17-.89-.51-1.22l-1.83-1.83c-.34-.34-.75-.51-1.22-.51-.47,0-.88.17-1.22.51l-3.06,3.06c-.34.34-.51.75-.51,1.22,0,.48.17.88.51,1.22l1.83,1.83c.34.34.75.51,1.23.51.48,0,.88-.17,1.22-.5l3.06-3.06c.34-.34.51-.75.5-1.23ZM65.93,44.46c-.08.08-.17.09-.25,0l-1.59-1.59s-.05-.07-.05-.12c0-.05.02-.09.06-.13l2.81-2.81s.07-.05.12-.05c.05,0,.09.02.12.05l1.59,1.59s.05.07.05.12c0,.05-.02.08-.05.12l-2.81,2.81Z"/>
      <path class="cls-1" d="M76.37,35.73c0-.48-.17-.89-.51-1.22l-1.83-1.83c-.34-.34-.75-.51-1.22-.51-.3,0-.57.07-.82.2-.14.08-.28.18-.4.3l-3.06,3.06c-.34.34-.51.75-.51,1.22,0,.48.17.88.51,1.22l1.83,1.83c.34.34.75.51,1.23.51.48,0,.88-.17,1.22-.5l3.06-3.06c.34-.34.51-.75.5-1.23ZM71.72,38.66c-.08.08-.17.09-.25,0l-1.59-1.59s-.05-.07-.05-.12c0-.05.02-.09.06-.13l2.81-2.81s.08-.05.12-.05c.05,0,.09.02.12.05l1.59,1.59s.05.07.05.12c0,.05-.02.08-.05.12l-2.81,2.81Z"/>
      <g>
        <path class="cls-1" d="M81.56,25.42l-7.09,7.09,1.57,1.57,7.09-7.09-1.57-1.57Z"/>
        <path class="cls-1" d="M88.95,18.03l-7.09,7.09,1.57,1.57,7.09-7.09-1.57-1.57Z"/>
        <path class="cls-1" d="M96.34,10.64l-7.09,7.09,1.57,1.57,7.09-7.09-1.57-1.57Z"/>
        <path class="cls-1" d="M101.78,5.2l-5.14,5.14,1.57,1.57,6.98-6.98c-1.14.07-2.27.15-3.41.26Z"/>
      </g>
    </g>
    <g>
      <path class="cls-1" d="M71.1,99.62l-1.82,1.82-1.22-1.22,1.7-1.7s.05-.07.05-.12c0-.05-.02-.09-.05-.12l-1.59-1.59s-.07-.05-.12-.05c-.05,0-.09.02-.12.05l-1.7,1.7-1.22-1.22,1.82-1.82c.34-.34.75-.51,1.22-.51.48,0,.88.17,1.22.51l1.83,1.83c.34.34.51.74.51,1.22,0,.48-.16.89-.5,1.23Z"/>
      <g>
        <path class="cls-1" d="M51.57,113.3l-7.09,7.09,1.57,1.57,7.09-7.09-1.57-1.57Z"/>
        <path class="cls-1" d="M29.4,135.47l-4.05,4.05c.33.71.68,1.41,1.03,2.11l4.59-4.59-1.57-1.57Z"/>
        <path class="cls-1" d="M66.35,98.52l-7.09,7.09,1.57,1.57,7.09-7.09-1.57-1.57Z"/>
        <path class="cls-1" d="M58.96,105.91l-7.09,7.09,1.57,1.57,7.09-7.09-1.57-1.57Z"/>
        <path class="cls-1" d="M49.7,111.43l-7.09,7.09,1.57,1.57,7.09-7.09-1.57-1.57Z"/>
        <path class="cls-1" d="M42.31,118.82l-7.09,7.09,1.57,1.57,7.09-7.09-1.57-1.57Z"/>
        <path class="cls-1" d="M34.92,126.21l-7.09,7.09,1.57,1.57,7.09-7.09-1.57-1.57Z"/>
        <path class="cls-1" d="M27.53,133.6l-3.35,3.35c.32.73.64,1.45.98,2.17l3.94-3.94-1.57-1.57Z"/>
        <path class="cls-1" d="M64.48,96.65l-7.09,7.09,1.58,1.58,7.09-7.09-1.58-1.58Z"/>
        <path class="cls-1" d="M57.09,104.04l-7.09,7.09,1.57,1.57,7.09-7.09-1.57-1.57Z"/>
        <path class="cls-1" d="M31.27,137.35l-4.69,4.69c.35.69.71,1.38,1.08,2.06l5.18-5.18-1.57-1.57Z"/>
        <path class="cls-1" d="M68.23,100.39l-7.09,7.09,1.57,1.57,7.09-7.09-1.57-1.57Z"/>
        <path class="cls-1" d="M60.83,107.78l-7.09,7.09,1.57,1.57,7.09-7.09-1.57-1.57Z"/>
        <path class="cls-1" d="M36.79,128.08l-7.09,7.09,1.57,1.57,7.09-7.09-1.57-1.57Z"/>
        <path class="cls-1" d="M38.66,129.96l-7.09,7.09,1.57,1.57,7.09-7.09-1.57-1.57Z"/>
        <path class="cls-1" d="M44.18,120.69l-7.09,7.09,1.57,1.57,7.09-7.09-1.57-1.57Z"/>
        <path class="cls-1" d="M46.05,122.57l-7.09,7.09,1.57,1.57,7.09-7.09-1.57-1.57Z"/>
        <path class="cls-1" d="M53.44,115.17l-7.09,7.09,1.57,1.57,7.09-7.09-1.57-1.57Z"/>
      </g>
      <path class="cls-1" d="M77.38,92.63c0-.48-.17-.89-.51-1.22l-1.83-1.83c-.34-.34-.74-.51-1.22-.51-.47,0-.88.17-1.22.51l-3.06,3.06c-.34.34-.51.75-.51,1.22,0,.48.17.88.51,1.22l1.83,1.83c.34.34.75.51,1.23.51.48,0,.88-.17,1.22-.5l3.06-3.06c.34-.34.51-.75.5-1.23ZM72.74,95.56c-.08.08-.17.09-.25,0l-1.59-1.59s-.05-.08-.05-.12c0-.05.02-.09.06-.13l2.81-2.81s.07-.05.12-.05c.05,0,.09.02.12.05l1.59,1.59s.05.07.05.12c0,.05-.02.09-.05.12l-2.81,2.81Z"/>
      <path class="cls-1" d="M83.18,86.83c0-.48-.17-.89-.51-1.22l-1.83-1.83c-.34-.34-.75-.51-1.22-.51-.47,0-.88.17-1.22.51l-3.06,3.06c-.34.34-.51.75-.51,1.22,0,.48.17.88.51,1.22l1.83,1.83c.34.34.75.51,1.23.51.48,0,.88-.17,1.22-.5l3.06-3.06c.34-.34.51-.75.5-1.23ZM78.53,89.77c-.08.08-.17.09-.25,0l-1.59-1.59s-.05-.08-.05-.12.02-.09.06-.13l2.81-2.81s.07-.05.12-.05c.05,0,.09.02.12.05l1.59,1.59s.05.08.05.12c0,.05-.02.09-.05.12l-2.81,2.81Z"/>
      <path class="cls-1" d="M88.97,81.03c0-.48-.17-.89-.51-1.22l-1.83-1.83c-.34-.34-.75-.51-1.22-.51-.47,0-.88.17-1.22.51l-3.06,3.06c-.34.34-.51.75-.51,1.22,0,.47.17.88.51,1.22l1.83,1.83c.34.34.75.51,1.23.51.48,0,.89-.17,1.22-.5l3.06-3.06c.34-.34.51-.75.5-1.23ZM84.32,83.97c-.08.08-.17.09-.25,0l-1.59-1.59s-.05-.08-.05-.12c0-.05.02-.09.06-.13l2.81-2.81s.07-.05.12-.05c.05,0,.09.02.12.05l1.59,1.59s.05.08.05.12c0,.05-.02.09-.05.12l-2.81,2.81Z"/>
      <path class="cls-1" d="M94.76,75.24c0-.48-.17-.89-.51-1.22l-1.83-1.83c-.34-.34-.75-.51-1.22-.51-.47,0-.88.17-1.22.51l-3.06,3.06c-.34.34-.51.75-.51,1.22,0,.48.17.88.51,1.22l1.83,1.83c.34.34.75.51,1.23.51.48,0,.88-.17,1.22-.5l3.06-3.06c.34-.34.51-.75.5-1.23ZM90.11,78.17c-.08.08-.17.09-.25,0l-1.59-1.59s-.05-.07-.05-.12c0-.05.02-.09.06-.13l2.81-2.81s.08-.05.12-.05c.05,0,.09.02.12.05l1.59,1.59s.05.07.05.12c0,.05-.02.09-.05.12l-2.81,2.81Z"/>
      <path class="cls-1" d="M100.55,69.44c0-.48-.17-.89-.51-1.22l-1.83-1.83c-.34-.34-.75-.51-1.22-.51-.48,0-.88.17-1.22.51l-3.06,3.06c-.34.34-.51.75-.51,1.22,0,.48.17.88.51,1.22l1.83,1.83c.34.34.75.51,1.23.51.48,0,.89-.17,1.22-.5l3.06-3.06c.34-.34.51-.75.5-1.23ZM95.9,72.38c-.08.08-.17.09-.25,0l-1.59-1.59s-.05-.07-.05-.12c0-.05.02-.09.06-.13l2.81-2.81s.08-.05.12-.05c.05,0,.09.02.12.05l1.59,1.59s.05.07.05.12c0,.05-.02.09-.05.12l-2.81,2.81Z"/>
      <path class="cls-1" d="M106.35,63.65c0-.48-.17-.89-.51-1.22l-1.83-1.83c-.34-.34-.75-.51-1.22-.51-.48,0-.88.17-1.22.51l-3.06,3.06c-.34.34-.51.75-.51,1.22,0,.47.17.88.51,1.22l1.83,1.83c.34.34.75.51,1.23.51.48,0,.89-.17,1.22-.5l3.06-3.06c.34-.34.51-.75.5-1.23ZM101.7,66.59c-.08.08-.17.08-.25,0l-1.59-1.59s-.05-.07-.05-.12c0-.05.02-.09.06-.13l2.81-2.81s.07-.05.12-.05c.05,0,.09.02.12.05l1.59,1.59s.05.07.05.12c0,.05-.02.09-.05.12l-2.81,2.81Z"/>
      <path class="cls-1" d="M112.14,57.86c0-.48-.17-.89-.51-1.22l-1.83-1.83c-.26-.26-.56-.42-.9-.48-.1-.02-.21-.03-.32-.03-.47,0-.88.17-1.22.51l-3.06,3.06c-.34.34-.51.74-.51,1.22,0,.47.17.88.51,1.22l1.83,1.83c.34.34.75.51,1.23.51.48,0,.89-.17,1.22-.5l3.06-3.06c.34-.34.51-.75.5-1.23ZM107.49,60.79c-.08.08-.17.09-.25,0l-1.59-1.59s-.05-.08-.05-.12c0-.05.02-.09.06-.13l2.81-2.81s.07-.05.12-.05c.05,0,.08.02.12.05l1.59,1.59s.05.07.05.12c0,.05-.02.09-.05.12l-2.81,2.81Z"/>
      <g>
        <path class="cls-1" d="M117.32,47.55l-7.09,7.09,1.57,1.57,7.09-7.09-1.57-1.57Z"/>
        <path class="cls-1" d="M124.72,40.15l-7.09,7.09,1.57,1.57,7.09-7.09-1.57-1.57Z"/>
        <path class="cls-1" d="M132.11,32.76l-7.09,7.09,1.57,1.57,7.09-7.09-1.57-1.57Z"/>
        <path class="cls-1" d="M139.5,25.37l-7.09,7.09,1.57,1.57,7.09-7.09-1.57-1.57Z"/>
        <path class="cls-1" d="M146.89,17.98l-7.09,7.09,1.57,1.57,7.09-7.09-1.57-1.57Z"/>
        <path class="cls-1" d="M151.06,13.81l-3.88,3.88,1.58,1.58,4.42-4.42c-.7-.35-1.41-.7-2.12-1.03Z"/>
      </g>
    </g>
    <g>
      <path class="cls-1" d="M62.96,93.24l-4.24-4.24c.29-.21.62-.32,1-.32.48,0,.88.17,1.22.51l1.83,1.83c.33.33.5.74.51,1.22,0,.38-.1.71-.31,1Z"/>
      <g>
        <path class="cls-1" d="M45.27,105.12l-7.09,7.09,1.57,1.57,7.09-7.09-1.57-1.57Z"/>
        <path class="cls-1" d="M23.1,127.29l-1.93,1.93c.26.78.53,1.56.81,2.33l2.69-2.69-1.57-1.57Z"/>
        <path class="cls-1" d="M60.05,90.34l-7.09,7.09,1.57,1.57,7.09-7.09-1.57-1.57Z"/>
        <path class="cls-1" d="M52.66,97.73l-7.09,7.09,1.57,1.57,7.09-7.09-1.57-1.57Z"/>
        <path class="cls-1" d="M43.4,103.24l-7.09,7.09,1.57,1.57,7.09-7.09-1.57-1.57Z"/>
        <path class="cls-1" d="M36.01,110.64l-7.09,7.09,1.57,1.57,7.09-7.09-1.57-1.57Z"/>
        <path class="cls-1" d="M28.62,118.03l-7.09,7.09,1.57,1.57,7.09-7.09-1.57-1.57Z"/>
        <path class="cls-1" d="M21.23,125.42l-.96.96c.24.8.49,1.6.75,2.4l1.79-1.79-1.57-1.57Z"/>
        <path class="cls-1" d="M58.18,88.46l-7.09,7.09,1.57,1.57,7.09-7.09-1.57-1.57Z"/>
        <path class="cls-1" d="M50.79,95.85l-7.09,7.09,1.57,1.57,7.09-7.09-1.57-1.57Z"/>
        <path class="cls-1" d="M24.97,129.16l-2.83,2.83c.28.76.57,1.52.88,2.27l3.53-3.53-1.57-1.57Z"/>
        <path class="cls-1" d="M61.93,92.21l-7.09,7.09,1.57,1.57,7.09-7.09-1.57-1.57Z"/>
        <path class="cls-1" d="M54.53,99.6l-7.09,7.09,1.57,1.57,7.09-7.09-1.57-1.57Z"/>
        <path class="cls-1" d="M30.49,119.9l-7.09,7.09,1.57,1.57,7.09-7.09-1.57-1.57Z"/>
        <path class="cls-1" d="M32.36,121.77l-7.09,7.09,1.57,1.57,7.09-7.09-1.57-1.57Z"/>
        <path class="cls-1" d="M37.88,112.51l-7.09,7.09,1.57,1.57,7.09-7.09-1.57-1.57Z"/>
        <path class="cls-1" d="M39.75,114.38l-7.09,7.09,1.57,1.57,7.09-7.09-1.57-1.57Z"/>
        <path class="cls-1" d="M47.15,106.99l-7.09,7.09,1.57,1.57,7.09-7.09-1.57-1.57Z"/>
      </g>
      <path class="cls-1" d="M69.07,86.45c0-.48-.17-.89-.51-1.22l-1.83-1.83c-.34-.34-.75-.51-1.22-.51-.48,0-.88.17-1.22.51l-3.06,3.06c-.34.34-.51.74-.51,1.22,0,.47.17.88.51,1.22l1.83,1.83c.34.34.75.51,1.22.51.48,0,.89-.17,1.22-.5l3.06-3.06c.34-.34.5-.75.5-1.23ZM64.42,89.38c-.08.08-.17.09-.25,0l-1.6-1.6s-.05-.07-.05-.12c0-.05.02-.09.06-.13l2.81-2.81s.07-.05.12-.05c.05,0,.09.02.12.05l1.6,1.6s.05.07.05.12c0,.05-.02.09-.05.12l-2.81,2.81Z"/>
      <path class="cls-1" d="M74.86,80.65c0-.48-.17-.89-.51-1.22l-1.83-1.83c-.34-.34-.75-.51-1.22-.51-.48,0-.88.17-1.22.51l-3.06,3.06c-.34.34-.51.74-.51,1.22,0,.47.17.88.51,1.22l1.83,1.83c.34.34.75.51,1.22.51.48,0,.89-.17,1.22-.5l3.06-3.06c.34-.34.51-.75.5-1.23ZM70.21,83.59c-.08.08-.17.09-.25,0l-1.6-1.6s-.05-.07-.05-.12c0-.05.02-.09.06-.13l2.81-2.81s.07-.05.12-.05c.05,0,.08.02.12.05l1.6,1.6s.05.07.05.12c0,.05-.02.09-.05.12l-2.81,2.81Z"/>
      <path class="cls-1" d="M80.65,74.85c0-.48-.17-.89-.51-1.22l-1.83-1.83c-.34-.34-.75-.51-1.22-.51-.47,0-.88.17-1.22.51l-3.06,3.06c-.34.34-.51.75-.51,1.22,0,.48.17.88.51,1.22l1.83,1.83c.34.34.75.51,1.23.51.48,0,.88-.17,1.22-.5l3.06-3.06c.34-.34.51-.75.5-1.23ZM76,77.79c-.08.08-.17.09-.25,0l-1.59-1.59s-.05-.07-.05-.12c0-.05.02-.09.06-.13l2.81-2.81s.07-.05.12-.05c.05,0,.09.02.12.05l1.59,1.59s.05.08.05.12-.02.09-.05.12l-2.81,2.81Z"/>
      <path class="cls-1" d="M86.44,69.06c0-.48-.17-.89-.51-1.22l-1.83-1.83c-.34-.34-.75-.51-1.22-.51-.47,0-.88.17-1.22.51l-3.06,3.06c-.34.34-.51.75-.51,1.22,0,.48.17.88.51,1.22l1.83,1.83c.34.34.75.51,1.23.51.48,0,.88-.17,1.22-.5l3.06-3.06c.34-.34.51-.75.5-1.23ZM81.79,71.99c-.08.08-.17.09-.25,0l-1.59-1.59s-.05-.08-.05-.12c0-.05.02-.09.06-.13l2.81-2.81s.07-.05.12-.05c.05,0,.09.02.12.05l1.59,1.59s.05.08.05.12c0,.05-.02.09-.05.12l-2.81,2.81Z"/>
      <path class="cls-1" d="M92.24,63.26c0-.48-.17-.88-.51-1.22l-1.83-1.83c-.34-.34-.74-.51-1.22-.51-.47,0-.88.17-1.22.51l-3.06,3.06c-.34.34-.51.75-.51,1.22,0,.48.17.88.51,1.22l1.83,1.83c.34.34.75.51,1.23.51.48,0,.88-.17,1.22-.5l3.06-3.06c.34-.34.51-.75.5-1.23ZM87.59,66.2c-.08.08-.17.09-.25,0l-1.59-1.59s-.05-.07-.05-.12c0-.05.02-.09.06-.13l2.81-2.81s.07-.05.12-.05c.05,0,.09.02.12.05l1.59,1.59s.05.08.05.12c0,.05-.02.09-.05.12l-2.81,2.81Z"/>
      <path class="cls-1" d="M98.03,57.47c0-.48-.17-.88-.51-1.22l-1.83-1.83c-.34-.34-.74-.51-1.22-.51-.48,0-.88.17-1.22.51l-3.06,3.06c-.34.34-.51.75-.51,1.22,0,.48.17.88.51,1.22l1.83,1.83c.34.34.75.51,1.23.51.48,0,.88-.17,1.22-.5l3.06-3.06c.34-.34.51-.75.5-1.23ZM93.38,60.4c-.08.08-.17.09-.25,0l-1.59-1.59s-.05-.07-.05-.12c0-.05.02-.09.06-.13l2.81-2.81s.08-.05.12-.05c.05,0,.09.02.12.05l1.59,1.59s.05.08.05.12c0,.05-.02.09-.05.12l-2.81,2.81Z"/>
      <path class="cls-1" d="M103.82,51.67c0-.48-.17-.88-.51-1.22l-1.83-1.83c-.3-.3-.66-.47-1.07-.5-.05,0-.1,0-.15,0-.48,0-.88.17-1.22.51l-3.06,3.06c-.34.34-.51.75-.51,1.22,0,.48.17.88.51,1.22l1.83,1.83c.34.34.75.51,1.23.51.48,0,.88-.17,1.22-.5l3.06-3.06c.34-.34.51-.75.5-1.23ZM99.17,54.61c-.08.08-.17.09-.25,0l-1.59-1.59s-.05-.07-.05-.12c0-.05.02-.09.06-.13l2.81-2.81s.08-.05.12-.05.09.02.12.05l1.59,1.59s.05.08.05.12-.02.09-.05.12l-2.81,2.81Z"/>
      <g>
        <path class="cls-1" d="M109.01,41.36l-7.09,7.09,1.58,1.58,7.09-7.09-1.58-1.58Z"/>
        <path class="cls-1" d="M116.4,33.97l-7.09,7.09,1.58,1.58,7.09-7.09-1.58-1.58Z"/>
        <path class="cls-1" d="M123.79,26.58l-7.09,7.09,1.58,1.58,7.09-7.09-1.58-1.58Z"/>
        <path class="cls-1" d="M131.18,19.19l-7.09,7.09,1.58,1.58,7.09-7.09-1.58-1.58Z"/>
        <path class="cls-1" d="M138.57,11.8l-7.09,7.09,1.58,1.58,7.09-7.09-1.58-1.58Z"/>
        <path class="cls-1" d="M140.72,9.66l-1.84,1.84,1.57,1.57,2.6-2.6c-.77-.28-1.55-.55-2.33-.82Z"/>
      </g>
    </g>
    <g>
      <path class="cls-1" d="M94.51,118.88c0-.48-.17-.89-.51-1.22l-1.83-1.83c-.34-.34-.75-.51-1.22-.51-.48,0-.88.17-1.22.51l-3.06,3.06c-.34.34-.51.74-.51,1.22,0,.14.02.28.05.41l3.1,3.1c.13.03.27.05.42.05.48,0,.88-.17,1.22-.5l3.06-3.06c.34-.34.51-.75.5-1.23ZM89.86,121.81c-.08.08-.17.09-.25,0l-1.6-1.6s-.05-.07-.05-.12c0-.05.02-.09.06-.13l2.81-2.81s.07-.05.12-.05c.05,0,.08.02.12.05l1.6,1.6s.05.07.05.12c0,.05-.02.09-.05.12l-2.81,2.81Z"/>
      <path class="cls-1" d="M72.2,136.06l-7.09,7.09,1.57,1.57,7.09-7.09-1.57-1.57Z"/>
      <path class="cls-1" d="M50.02,158.23l-6.89,6.89,1.57,1.57,6.89-6.89-1.57-1.57Z"/>
      <path class="cls-1" d="M86.98,121.27l-7.09,7.09,1.57,1.57,7.09-7.09-1.57-1.57Z"/>
      <path class="cls-1" d="M79.59,128.67l-7.09,7.09,1.57,1.57,7.09-7.09-1.57-1.57Z"/>
      <path class="cls-1" d="M70.32,134.18l-7.09,7.09,1.57,1.57,7.09-7.09-1.57-1.57Z"/>
      <path class="cls-1" d="M62.93,141.57l-7.09,7.09,1.57,1.57,7.09-7.09-1.57-1.57Z"/>
      <path class="cls-1" d="M55.54,148.97l-7.09,7.09,1.57,1.57,7.09-7.09-1.57-1.57Z"/>
      <path class="cls-1" d="M48.15,156.36l-6.84,6.84,1.53,1.62,6.88-6.88-1.57-1.57Z"/>
      <path class="cls-1" d="M85.1,119.4l-7.09,7.09,1.57,1.57,7.09-7.09-1.57-1.57Z"/>
      <path class="cls-1" d="M77.71,126.79l-7.09,7.09,1.57,1.57,7.09-7.09-1.57-1.57Z"/>
      <path class="cls-1" d="M51.89,160.1l-6.88,6.88,1.62,1.53,6.84-6.84-1.57-1.57Z"/>
      <path class="cls-1" d="M88.85,123.15l-7.09,7.09,1.57,1.57,7.09-7.09-1.57-1.57Z"/>
      <path class="cls-1" d="M81.46,130.54l-7.09,7.09,1.57,1.57,7.09-7.09-1.57-1.57Z"/>
      <path class="cls-1" d="M57.41,150.84l-7.09,7.09,1.57,1.57,7.09-7.09-1.57-1.57Z"/>
      <path class="cls-1" d="M59.29,152.71l-7.09,7.09,1.57,1.57,7.09-7.09-1.57-1.57Z"/>
      <path class="cls-1" d="M64.8,143.45l-7.09,7.09,1.57,1.57,7.09-7.09-1.57-1.57Z"/>
      <path class="cls-1" d="M66.68,145.32l-7.09,7.09,1.57,1.57,7.09-7.09-1.57-1.57Z"/>
      <path class="cls-1" d="M74.07,137.93l-7.09,7.09,1.57,1.57,7.09-7.09-1.57-1.57Z"/>
      <path class="cls-1" d="M100.31,113.09c0-.48-.17-.89-.51-1.22l-1.83-1.83c-.34-.34-.75-.51-1.22-.51-.47,0-.88.17-1.22.51l-3.06,3.06c-.34.34-.51.75-.51,1.22,0,.47.17.88.51,1.22l1.83,1.83c.34.34.75.51,1.23.51.48,0,.89-.17,1.22-.5l3.06-3.06c.34-.34.51-.75.5-1.23ZM95.66,116.03c-.08.08-.17.09-.25,0l-1.59-1.59s-.05-.08-.05-.12.02-.09.06-.13l2.81-2.81s.07-.05.12-.05c.05,0,.08.02.12.05l1.59,1.59s.05.07.05.12c0,.05-.02.09-.05.12l-2.81,2.81Z"/>
      <path class="cls-1" d="M106.1,107.3c0-.48-.17-.89-.51-1.22l-1.83-1.83c-.34-.34-.75-.51-1.22-.51-.47,0-.88.17-1.22.51l-3.06,3.06c-.34.34-.51.75-.51,1.22,0,.47.17.88.51,1.22l1.83,1.83c.34.34.75.51,1.23.51.48,0,.89-.17,1.22-.5l3.06-3.06c.34-.34.51-.75.5-1.23ZM101.45,110.23c-.08.08-.17.09-.25,0l-1.59-1.59s-.05-.08-.05-.12c0-.05.02-.09.06-.13l2.81-2.81s.07-.05.12-.05c.05,0,.09.02.12.05l1.59,1.59s.05.07.05.12c0,.05-.02.09-.05.12l-2.81,2.81Z"/>
      <path class="cls-1" d="M111.89,101.49c0-.48-.17-.89-.51-1.22l-1.83-1.83c-.34-.34-.75-.51-1.22-.51-.47,0-.88.17-1.22.51l-3.06,3.06c-.34.34-.51.75-.51,1.22,0,.47.17.88.51,1.22l1.83,1.83c.34.34.75.51,1.23.51.48,0,.88-.17,1.22-.5l3.06-3.06c.34-.34.51-.75.5-1.23ZM107.24,104.43c-.08.08-.17.09-.25,0l-1.59-1.59s-.05-.08-.05-.12c0-.05.02-.09.06-.13l2.81-2.81s.07-.05.12-.05.09.02.12.05l1.59,1.59s.05.07.05.12c0,.05-.02.08-.05.12l-2.81,2.81Z"/>
      <path class="cls-1" d="M117.68,95.7c0-.48-.17-.88-.51-1.22l-1.83-1.83c-.34-.34-.75-.51-1.22-.51-.48,0-.88.17-1.22.51l-3.06,3.06c-.34.34-.51.75-.51,1.22,0,.47.17.88.51,1.22l1.83,1.83c.34.34.75.51,1.23.51.48,0,.88-.17,1.22-.5l3.06-3.06c.34-.34.51-.75.5-1.23ZM113.03,98.63c-.08.08-.17.09-.25,0l-1.6-1.6s-.05-.07-.05-.12c0-.05.02-.09.06-.13l2.81-2.81s.07-.05.12-.05c.05,0,.09.02.12.05l1.6,1.6s.05.07.05.12c0,.05-.02.09-.05.12l-2.81,2.81Z"/>
      <path class="cls-1" d="M123.48,89.91c0-.48-.17-.89-.51-1.22l-1.83-1.83c-.34-.34-.75-.51-1.22-.51-.48,0-.88.17-1.22.51l-3.06,3.06c-.34.34-.51.75-.51,1.22,0,.48.17.88.51,1.22l1.83,1.83c.34.34.75.51,1.23.51.48,0,.88-.17,1.22-.5l3.06-3.06c.34-.34.51-.75.5-1.23ZM118.83,92.84c-.08.08-.17.09-.25,0l-1.6-1.6s-.05-.07-.05-.12c0-.05.02-.09.06-.13l2.81-2.81s.07-.05.12-.05c.05,0,.09.02.12.05l1.6,1.6s.05.07.05.12c0,.05-.02.09-.05.12l-2.81,2.81Z"/>
      <path class="cls-1" d="M129.27,84.11c0-.48-.17-.89-.51-1.22l-1.83-1.83c-.34-.34-.75-.51-1.22-.51-.48,0-.88.17-1.22.51l-3.06,3.06c-.34.34-.51.75-.51,1.22,0,.48.17.88.51,1.22l1.83,1.83c.34.34.75.51,1.23.51.48,0,.88-.17,1.22-.5l3.06-3.06c.34-.34.5-.75.5-1.23ZM124.62,87.05c-.08.08-.17.09-.25,0l-1.6-1.6s-.05-.07-.05-.12c0-.05.02-.09.06-.13l2.81-2.81s.07-.05.12-.05c.05,0,.09.02.12.05l1.6,1.6s.05.07.05.12c0,.05-.02.09-.05.12l-2.81,2.81Z"/>
      <path class="cls-1" d="M135.07,78.32c0-.39-.11-.72-.33-1.01h0s0,0,0,0h0s0,0,0,0h0s0,0,0,0l-.03-.03s0,0,0,0c-.03-.05-.08-.11-.12-.15l-1.83-1.83s-.08-.07-.13-.1t0,0h0s0,0,0,0h0s0,0,0,0h0s0,0,0,0h0s0,0,0,0h0s0,0,0,0h0s0,0,0,0h0s0,0,0,0h0s0,0,0,0h0s0,0,0,0h0s0,0,0,0h0c-.29-.23-.63-.34-1.01-.34-.48,0-.88.17-1.22.51l-3.06,3.06c-.34.34-.51.75-.51,1.22,0,.47.17.88.51,1.22l1.83,1.83c.34.34.75.51,1.23.51.48,0,.88-.17,1.22-.5l3.06-3.06c.34-.34.5-.75.5-1.23ZM130.41,81.25c-.08.08-.17.08-.25,0l-1.6-1.6s-.05-.07-.05-.12c0-.05.02-.09.06-.13l2.81-2.81s.07-.05.12-.05c.05,0,.09.02.12.05l1.6,1.6s.05.07.05.12c0,.05-.02.09-.05.12l-2.81,2.81Z"/>
      <g>
        <path class="cls-1" d="M140.25,68.01l-7.09,7.09,1.57,1.57,7.09-7.09-1.57-1.57Z"/>
        <path class="cls-1" d="M147.64,60.62l-7.09,7.09,1.57,1.57,7.09-7.09-1.57-1.57Z"/>
        <path class="cls-1" d="M155.03,53.23l-7.09,7.09,1.57,1.57,7.09-7.09-1.57-1.57Z"/>
        <path class="cls-1" d="M162.42,45.84l-7.09,7.09,1.57,1.57,7.09-7.09-1.57-1.57Z"/>
        <path class="cls-1" d="M169.81,38.44l-7.09,7.09,1.57,1.57,7.09-7.09-1.57-1.57Z"/>
        <path class="cls-1" d="M177.44,32.43c-.27-.27-.54-.53-.81-.8l-6.52,6.52,1.57,1.57,6.52-6.52c-.25-.26-.51-.52-.77-.77Z"/>
      </g>
    </g>
    <g>
      <path class="cls-1" d="M87.07,112.3c.03-.11.05-.22.06-.33,0-.06,0-.12,0-.18,0-.06,0-.12,0-.18,0-.06-.02-.11-.03-.17-.07-.33-.22-.62-.48-.87l-1.83-1.83c-.34-.34-.75-.51-1.22-.51-.29,0-.56.07-.81.2-.04.02-.08.04-.11.07-.11.07-.21.15-.3.24l-3.06,3.06c-.21.21-.36.45-.43.71-.03.08-.04.16-.05.25-.01.08-.02.17-.02.26,0,.02,0,.04,0,.06l3.49,3.49s.05,0,.07,0c.48,0,.89-.17,1.22-.5l3.06-3.06c.21-.21.36-.45.44-.72ZM82.48,114.73s-.08.06-.12.06c-.02,0-.04,0-.05-.01,0,0-.01,0-.02,0-.02,0-.04-.02-.05-.04l-1.59-1.59s-.05-.07-.05-.12c0-.01,0-.02,0-.03,0-.03.02-.06.05-.09l2.81-2.81s.06-.05.1-.05c0,0,.01,0,.02,0h0s.01,0,.01,0c.04,0,.07.02.1.05l1.59,1.59s.02.03.03.04c0,.01.01.03.02.04,0,.01,0,.02,0,.04,0,.01,0,.02,0,.03,0,.03-.02.06-.05.09l-2.81,2.81Z"/>
      <path class="cls-1" d="M64.97,128.83l-7.09,7.09,1.58,1.58,7.09-7.09-1.58-1.58Z"/>
      <path class="cls-1" d="M42.79,151l-6.41,6.41,1.4,1.75,6.58-6.58-1.58-1.58Z"/>
      <path class="cls-1" d="M79.75,114.05l-7.09,7.09,1.58,1.58,7.09-7.09-1.58-1.58Z"/>
      <path class="cls-1" d="M72.36,121.44l-7.09,7.09,1.58,1.58,7.09-7.09-1.58-1.58Z"/>
      <path class="cls-1" d="M63.1,126.96l-7.09,7.09,1.57,1.57,7.09-7.09-1.57-1.57Z"/>
      <path class="cls-1" d="M55.71,134.35l-7.09,7.09,1.57,1.57,7.09-7.09-1.57-1.57Z"/>
      <path class="cls-1" d="M48.31,141.74l-7.09,7.09,1.57,1.57,7.09-7.09-1.57-1.57Z"/>
      <path class="cls-1" d="M40.92,149.13l-6.16,6.16c.44.6.9,1.2,1.36,1.79l6.38-6.38-1.57-1.57Z"/>
      <path class="cls-1" d="M77.88,112.18l-7.09,7.09,1.57,1.57,7.09-7.09-1.57-1.57Z"/>
      <path class="cls-1" d="M70.49,119.57l-7.09,7.09,1.57,1.57,7.09-7.09-1.57-1.57Z"/>
      <path class="cls-1" d="M44.67,152.87l-6.61,6.61,1.45,1.7,6.74-6.74-1.58-1.58Z"/>
      <path class="cls-1" d="M81.62,115.92l-7.09,7.09,1.58,1.58,7.09-7.09-1.58-1.58Z"/>
      <path class="cls-1" d="M74.23,123.31l-7.09,7.09,1.58,1.58,7.09-7.09-1.58-1.58Z"/>
      <path class="cls-1" d="M50.19,143.61l-7.09,7.09,1.58,1.58,7.09-7.09-1.58-1.58Z"/>
      <path class="cls-1" d="M52.06,145.48l-7.09,7.09,1.58,1.58,7.09-7.09-1.58-1.58Z"/>
      <path class="cls-1" d="M57.58,136.22l-7.09,7.09,1.58,1.58,7.09-7.09-1.58-1.58Z"/>
      <path class="cls-1" d="M59.45,138.09l-7.09,7.09,1.58,1.58,7.09-7.09-1.58-1.58Z"/>
      <path class="cls-1" d="M66.84,130.7l-7.09,7.09,1.58,1.58,7.09-7.09-1.58-1.58Z"/>
      <path class="cls-1" d="M92.92,106c0-.48-.17-.89-.51-1.22l-1.83-1.83c-.34-.34-.75-.51-1.22-.51-.47,0-.88.17-1.22.51l-3.06,3.06c-.34.34-.51.75-.51,1.22,0,.48.17.88.51,1.22l1.83,1.83c.34.34.75.51,1.23.51.48,0,.88-.17,1.22-.5l3.06-3.06c.34-.34.51-.75.5-1.23ZM88.27,108.94c-.08.08-.17.09-.25,0l-1.59-1.59s-.05-.07-.05-.12c0-.05.02-.09.06-.13l2.81-2.81s.08-.05.12-.05c.05,0,.09.02.12.05l1.59,1.59s.05.08.05.12c0,.05-.02.09-.05.12l-2.81,2.81Z"/>
      <path class="cls-1" d="M98.72,100.21c0-.48-.17-.89-.51-1.22l-1.83-1.83c-.34-.34-.75-.51-1.22-.51-.48,0-.88.17-1.22.51l-3.06,3.06c-.34.34-.51.75-.51,1.22,0,.48.17.88.51,1.22l1.83,1.83c.34.34.75.51,1.23.51.48,0,.88-.17,1.22-.5l3.06-3.06c.34-.34.51-.75.5-1.23ZM94.07,103.14c-.08.08-.17.09-.25,0l-1.59-1.59s-.05-.07-.05-.12c0-.05.02-.09.06-.13l2.81-2.81s.08-.05.12-.05c.05,0,.09.02.12.05l1.59,1.59s.05.08.05.12c0,.05-.02.09-.05.12l-2.81,2.81Z"/>
      <path class="cls-1" d="M104.5,94.41c0-.48-.17-.89-.51-1.22l-1.83-1.83c-.34-.34-.75-.51-1.22-.51-.48,0-.88.17-1.22.51l-3.06,3.06c-.34.34-.51.75-.51,1.22,0,.47.17.88.51,1.22l1.83,1.83c.34.34.75.51,1.23.51.48,0,.89-.17,1.22-.5l3.06-3.06c.34-.34.51-.75.5-1.23ZM99.85,97.34c-.08.08-.16.09-.25,0l-1.59-1.59s-.05-.07-.05-.12c0-.05.02-.09.06-.13l2.81-2.81s.07-.05.12-.05c.05,0,.09.02.12.05l1.59,1.59s.05.07.05.12c0,.05-.02.09-.05.12l-2.81,2.81Z"/>
      <path class="cls-1" d="M110.3,88.61c0-.48-.17-.89-.51-1.22l-1.83-1.83c-.34-.34-.75-.51-1.22-.51-.47,0-.88.17-1.22.51l-3.06,3.06c-.34.34-.51.75-.51,1.22,0,.47.17.88.51,1.22l1.83,1.83c.34.34.75.51,1.23.51.48,0,.89-.17,1.22-.5l3.06-3.06c.34-.34.51-.75.5-1.23ZM105.65,91.55c-.08.08-.17.09-.25,0l-1.59-1.59s-.05-.08-.05-.12c0-.05.02-.09.06-.13l2.81-2.81s.07-.05.12-.05c.05,0,.08.02.12.05l1.59,1.59s.05.07.05.12c0,.05-.02.09-.05.12l-2.81,2.81Z"/>
      <path class="cls-1" d="M116.09,82.82c0-.48-.17-.89-.51-1.22l-1.83-1.83c-.34-.34-.75-.51-1.22-.51-.47,0-.88.17-1.22.51l-3.06,3.06c-.34.34-.51.75-.51,1.22,0,.47.17.88.51,1.22l1.83,1.83c.34.34.75.51,1.23.51.48,0,.89-.17,1.22-.5l3.06-3.06c.34-.34.51-.75.5-1.23ZM111.44,85.75c-.08.08-.17.09-.25,0l-1.59-1.59s-.05-.08-.05-.12c0-.05.02-.09.06-.13l2.81-2.81s.07-.05.12-.05c.05,0,.09.02.12.05l1.59,1.59s.05.07.05.12c0,.05-.02.09-.05.12l-2.81,2.81Z"/>
      <path class="cls-1" d="M121.88,77.03c0-.48-.17-.89-.51-1.22l-1.83-1.83c-.34-.34-.75-.51-1.22-.51-.48,0-.88.17-1.22.51l-3.06,3.06c-.34.34-.51.75-.51,1.22,0,.47.17.88.51,1.22l1.83,1.83c.34.34.75.51,1.23.51.48,0,.89-.17,1.22-.5l3.06-3.06c.34-.34.51-.75.5-1.23ZM117.23,79.96c-.08.08-.17.09-.25,0l-1.59-1.59s-.05-.08-.05-.12c0-.05.02-.09.06-.13l2.81-2.81s.07-.05.12-.05c.05,0,.09.02.12.05l1.59,1.59s.05.07.05.12c0,.05-.02.09-.05.12l-2.81,2.81Z"/>
      <path class="cls-1" d="M127.68,71.23c0-.48-.17-.89-.51-1.22l-1.83-1.83c-.12-.12-.26-.22-.4-.3-.25-.14-.52-.21-.82-.21-.48,0-.88.17-1.22.51l-3.06,3.06c-.34.34-.51.75-.51,1.22,0,.47.17.88.51,1.22l1.83,1.83c.34.34.75.51,1.23.51.48,0,.89-.17,1.22-.5l3.06-3.06c.34-.34.51-.75.5-1.23ZM123.03,74.17c-.08.08-.17.09-.25,0l-1.6-1.6s-.05-.07-.05-.12c0-.05.02-.09.06-.13l2.81-2.81s.07-.05.12-.05c.05,0,.09.02.12.05l1.6,1.6s.05.07.05.12c0,.05-.02.09-.05.12l-2.81,2.81Z"/>
      <g>
        <path class="cls-1" d="M132.86,60.92l-7.09,7.09,1.57,1.57,7.09-7.09-1.57-1.57Z"/>
        <path class="cls-1" d="M140.25,53.53l-7.09,7.09,1.57,1.57,7.09-7.09-1.57-1.57Z"/>
        <path class="cls-1" d="M147.65,46.14l-7.09,7.09,1.57,1.57,7.09-7.09-1.57-1.57Z"/>
        <path class="cls-1" d="M155.04,38.75l-7.09,7.09,1.57,1.57,7.09-7.09-1.57-1.57Z"/>
        <path class="cls-1" d="M162.43,31.36l-7.09,7.09,1.57,1.57,7.09-7.09-1.57-1.57Z"/>
        <path class="cls-1" d="M168.92,24.86l-6.19,6.19,1.57,1.57,6.36-6.36c-.58-.48-1.16-.94-1.75-1.4Z"/>
      </g>
    </g>
    <g>
      <path class="cls-1" d="M78.95,106.17l-3.06,3.06-1.33-1.33c.08.07.16.06.23-.02l2.81-2.81s.05-.07.05-.12c0-.05-.02-.09-.05-.12l-1.59-1.59s-.08-.05-.12-.05c-.05,0-.09.02-.12.05l-2.81,2.81s-.06.08-.06.13c0,.05.02.09.05.12l-1.34-1.34,3.06-3.06c.34-.34.75-.51,1.22-.51.47,0,.88.17,1.22.51l1.83,1.83c.34.34.51.74.51,1.22,0,.48-.16.89-.5,1.23Z"/>
      <path class="cls-1" d="M79.46,104.95c0-.48-.17-.88-.51-1.22l-1.83-1.83c-.34-.34-.75-.51-1.22-.51-.47,0-.88.17-1.22.51l-3.06,3.06,1.34,1.34s-.05-.08-.05-.12c0-.05.02-.09.06-.13l2.81-2.81s.07-.05.12-.05c.05,0,.09.02.12.05l1.59,1.59s.05.08.05.12c0,.05-.02.09-.05.12l-2.81,2.81c-.08.08-.16.09-.23.02l1.33,1.33,3.06-3.06c.34-.34.51-.75.5-1.23Z"/>
      <g>
        <path class="cls-1" d="M58.22,121.1l-7.09,7.09,1.57,1.57,7.09-7.09-1.57-1.57Z"/>
        <path class="cls-1" d="M36.04,143.28l-5.62,5.62c.4.64.81,1.29,1.23,1.92l5.97-5.97-1.57-1.57Z"/>
        <path class="cls-1" d="M73,106.32l-7.09,7.09,1.57,1.57,7.09-7.09-1.57-1.57Z"/>
        <path class="cls-1" d="M65.61,113.71l-7.09,7.09,1.57,1.57,7.09-7.09-1.57-1.57Z"/>
        <path class="cls-1" d="M56.34,119.23l-7.09,7.09,1.57,1.57,7.09-7.09-1.57-1.57Z"/>
        <path class="cls-1" d="M48.95,126.62l-7.09,7.09,1.57,1.57,7.09-7.09-1.57-1.57Z"/>
        <path class="cls-1" d="M41.56,134.01l-7.09,7.09,1.57,1.57,7.09-7.09-1.57-1.57Z"/>
        <path class="cls-1" d="M34.17,141.41l-5.15,5.15c.38.66.78,1.32,1.18,1.97l5.55-5.55-1.57-1.57Z"/>
        <path class="cls-1" d="M71.12,104.45l-7.09,7.09,1.58,1.58,7.09-7.09-1.58-1.58Z"/>
        <path class="cls-1" d="M63.73,111.84l-7.09,7.09,1.57,1.57,7.09-7.09-1.57-1.57Z"/>
        <path class="cls-1" d="M37.92,145.15l-6.03,6.03c.42.63.84,1.25,1.27,1.87l6.33-6.33-1.57-1.57Z"/>
        <path class="cls-1" d="M74.87,108.2l-7.09,7.09,1.57,1.57,7.09-7.09-1.57-1.57Z"/>
        <path class="cls-1" d="M67.48,115.59l-7.09,7.09,1.57,1.57,7.09-7.09-1.57-1.57Z"/>
        <path class="cls-1" d="M43.43,135.89l-7.09,7.09,1.57,1.57,7.09-7.09-1.57-1.57Z"/>
        <path class="cls-1" d="M45.31,137.76l-7.09,7.09,1.57,1.57,7.09-7.09-1.57-1.57Z"/>
        <path class="cls-1" d="M50.82,128.5l-7.09,7.09,1.57,1.57,7.09-7.09-1.57-1.57Z"/>
        <path class="cls-1" d="M52.7,130.37l-7.09,7.09,1.57,1.57,7.09-7.09-1.57-1.57Z"/>
        <path class="cls-1" d="M60.09,122.98l-7.09,7.09,1.57,1.57,7.09-7.09-1.57-1.57Z"/>
      </g>
      <path class="cls-1" d="M85.26,99.16c0-.48-.17-.88-.51-1.22l-1.83-1.83c-.34-.34-.75-.51-1.22-.51-.47,0-.88.17-1.22.51l-3.06,3.06c-.34.34-.51.75-.51,1.22,0,.48.17.88.51,1.22l1.83,1.83c.34.34.75.51,1.23.51.48,0,.88-.16,1.22-.5l3.06-3.06c.34-.34.51-.75.5-1.23ZM80.61,102.09c-.08.08-.17.09-.25,0l-1.59-1.59s-.05-.07-.05-.12c0-.05.02-.09.06-.13l2.81-2.81s.07-.05.12-.05c.05,0,.09.02.12.05l1.59,1.59s.05.08.05.12-.02.09-.05.12l-2.81,2.81Z"/>
      <path class="cls-1" d="M91.05,93.36c0-.48-.17-.89-.51-1.22l-1.83-1.83c-.34-.34-.75-.51-1.22-.51-.48,0-.88.17-1.22.51l-3.06,3.06c-.34.34-.51.75-.51,1.22,0,.48.17.88.51,1.22l1.83,1.83c.34.34.75.51,1.23.51.48,0,.89-.17,1.22-.5l3.06-3.06c.34-.34.5-.75.5-1.23ZM86.4,96.3c-.08.08-.17.09-.25,0l-1.59-1.59s-.05-.07-.05-.12c0-.05.02-.09.06-.13l2.81-2.81s.07-.05.12-.05c.05,0,.09.02.12.05l1.59,1.59s.05.08.05.12c0,.05-.02.09-.05.12l-2.81,2.81Z"/>
      <path class="cls-1" d="M96.84,87.56c0-.48-.17-.88-.51-1.22l-1.83-1.83c-.34-.34-.74-.51-1.22-.51-.48,0-.88.17-1.22.51l-3.06,3.06c-.34.34-.51.75-.51,1.22,0,.48.17.88.51,1.22l1.83,1.83c.34.34.75.51,1.23.51.48,0,.88-.17,1.22-.5l3.06-3.06c.34-.34.51-.75.5-1.23ZM92.19,90.5c-.08.08-.17.08-.25,0l-1.59-1.59s-.05-.07-.05-.12c0-.05.02-.09.06-.13l2.81-2.81s.07-.05.12-.05c.05,0,.09.02.12.05l1.59,1.59s.05.08.05.12c0,.05-.02.09-.05.12l-2.81,2.81Z"/>
      <path class="cls-1" d="M102.63,81.77c0-.48-.17-.89-.51-1.22l-1.83-1.83c-.34-.34-.75-.51-1.22-.51-.47,0-.88.17-1.22.51l-3.06,3.06c-.34.34-.51.74-.51,1.22,0,.47.17.88.51,1.22l1.83,1.83c.34.34.75.51,1.23.51.48,0,.89-.17,1.22-.5l3.06-3.06c.34-.34.51-.75.5-1.23ZM97.98,84.7c-.08.08-.17.09-.25,0l-1.59-1.59s-.05-.08-.05-.12.02-.09.06-.13l2.81-2.81s.07-.05.12-.05c.05,0,.09.02.12.05l1.59,1.59s.05.07.05.12c0,.05-.02.09-.05.12l-2.81,2.81Z"/>
      <path class="cls-1" d="M108.42,75.97c0-.48-.17-.89-.51-1.22l-1.83-1.83c-.34-.34-.75-.51-1.22-.51-.47,0-.88.17-1.22.51l-3.06,3.06c-.34.34-.51.75-.51,1.22,0,.47.17.88.51,1.22l1.83,1.83c.34.34.75.51,1.23.51.48,0,.88-.17,1.22-.5l3.06-3.06c.34-.34.51-.75.5-1.23ZM103.77,78.91c-.08.08-.17.09-.25,0l-1.59-1.59s-.05-.08-.05-.12c0-.05.02-.09.06-.13l2.81-2.81s.07-.05.12-.05c.05,0,.09.02.12.05l1.59,1.59s.05.07.05.12c0,.05-.02.09-.05.12l-2.81,2.81Z"/>
      <path class="cls-1" d="M114.22,70.18c0-.48-.17-.89-.51-1.22l-1.83-1.83c-.34-.34-.75-.51-1.22-.51-.47,0-.88.17-1.22.51l-3.06,3.06c-.34.34-.51.75-.51,1.22,0,.47.17.88.51,1.22l1.83,1.83c.34.34.75.51,1.23.51.48,0,.88-.17,1.22-.5l3.06-3.06c.34-.34.51-.75.5-1.23ZM109.57,73.11c-.08.08-.17.09-.25,0l-1.59-1.59s-.05-.08-.05-.12c0-.05.02-.09.06-.13l2.81-2.81s.07-.05.12-.05.09.02.12.05l1.59,1.59s.05.08.05.12-.02.09-.05.12l-2.81,2.81Z"/>
      <path class="cls-1" d="M120.01,64.38c0-.48-.17-.88-.51-1.22l-1.83-1.83c-.19-.19-.4-.33-.63-.41-.18-.07-.38-.1-.59-.1-.47,0-.88.17-1.22.51l-3.06,3.06c-.34.34-.51.75-.51,1.22,0,.47.17.88.51,1.22l1.83,1.83c.34.34.75.51,1.23.51.48,0,.88-.17,1.22-.5l3.06-3.06c.34-.34.51-.75.5-1.23ZM115.36,67.32c-.08.08-.17.09-.25,0l-1.59-1.59s-.05-.08-.05-.12c0-.05.02-.09.06-.13l2.81-2.81s.07-.05.12-.05c.05,0,.09.02.12.05l1.59,1.59s.05.08.05.12c0,.05-.02.09-.05.12l-2.81,2.81Z"/>
      <g>
        <path class="cls-1" d="M125.2,54.07l-7.09,7.09,1.58,1.58,7.09-7.09-1.58-1.58Z"/>
        <path class="cls-1" d="M132.59,46.68l-7.09,7.09,1.58,1.58,7.09-7.09-1.58-1.58Z"/>
        <path class="cls-1" d="M139.98,39.29l-7.09,7.09,1.58,1.58,7.09-7.09-1.58-1.58Z"/>
        <path class="cls-1" d="M147.37,31.9l-7.09,7.09,1.58,1.58,7.09-7.09-1.58-1.58Z"/>
        <path class="cls-1" d="M154.76,24.51l-7.09,7.09,1.58,1.58,7.09-7.09-1.58-1.58Z"/>
        <path class="cls-1" d="M160.38,18.89l-5.32,5.32,1.58,1.58,5.67-5.67c-.64-.42-1.28-.83-1.93-1.23Z"/>
      </g>
    </g>
    <g>
      <g>
        <path class="cls-1" d="M25.72,66.93l-5.61,5.61c-.23.77-.44,1.54-.65,2.32l.74.74,7.09-7.09-1.57-1.57Z"/>
        <path class="cls-1" d="M40.5,52.14l-7.09,7.09,1.57,1.57,7.09-7.09-1.57-1.57Z"/>
        <path class="cls-1" d="M33.11,59.54l-7.09,7.09,1.57,1.57,7.09-7.09-1.57-1.57Z"/>
        <path class="cls-1" d="M23.85,65.05l-1.92,1.92c-.56,1.56-1.09,3.13-1.57,4.71l5.06-5.06-1.57-1.57Z"/>
        <path class="cls-1" d="M38.63,50.27l-7.09,7.09,1.57,1.57,7.09-7.09-1.57-1.57Z"/>
        <path class="cls-1" d="M31.24,57.66l-7.09,7.09,1.57,1.57,7.09-7.09-1.57-1.57Z"/>
        <path class="cls-1" d="M42.37,54.02l-7.09,7.09,1.58,1.58,7.09-7.09-1.58-1.58Z"/>
        <path class="cls-1" d="M34.98,61.41l-7.09,7.09,1.58,1.58,7.09-7.09-1.58-1.58Z"/>
        <path class="cls-1" d="M19.34,75.33c-.13.5-.26,1.01-.38,1.51l.95-.95-.57-.57Z"/>
        <path class="cls-1" d="M20.2,76.19l-1.43,1.43c-.31,1.32-.59,2.66-.84,3.99l3.85-3.85-1.58-1.58Z"/>
        <path class="cls-1" d="M27.59,68.8l-7.09,7.09,1.58,1.58,7.09-7.09-1.58-1.58Z"/>
      </g>
      <path class="cls-1" d="M48.24,49.32c0-.48-.17-.89-.51-1.22l-1.83-1.83c-.34-.34-.75-.51-1.22-.51-.48,0-.88.17-1.22.51l-3.06,3.06c-.34.34-.51.74-.51,1.22,0,.47.17.88.51,1.22l1.83,1.83c.34.34.75.51,1.23.51.48,0,.89-.17,1.22-.5l3.06-3.06c.34-.34.51-.75.5-1.23ZM43.59,52.25c-.08.08-.17.09-.25,0l-1.6-1.6s-.05-.07-.05-.12c0-.05.02-.09.06-.13l2.81-2.81s.07-.05.12-.05c.05,0,.09.02.12.05l1.6,1.6s.05.07.05.12c0,.05-.02.09-.05.12l-2.81,2.81Z"/>
      <path class="cls-1" d="M54.03,43.53c0-.48-.17-.89-.51-1.22l-1.83-1.83c-.34-.34-.75-.51-1.22-.51-.47,0-.88.17-1.22.51l-3.06,3.06c-.34.34-.51.74-.51,1.22,0,.48.17.88.51,1.22l1.83,1.83c.34.34.75.51,1.23.51.48,0,.89-.17,1.22-.5l3.06-3.06c.34-.34.51-.75.5-1.23ZM49.38,46.46c-.08.08-.17.09-.25,0l-1.59-1.59s-.05-.07-.05-.12c0-.05.02-.09.06-.13l2.81-2.81s.07-.05.12-.05c.05,0,.09.02.12.05l1.59,1.59s.05.07.05.12c0,.05-.02.09-.05.12l-2.81,2.81Z"/>
      <path class="cls-1" d="M59.82,37.73c0-.48-.17-.89-.51-1.22l-1.83-1.83c-.34-.34-.75-.51-1.22-.51-.47,0-.88.17-1.22.51l-3.06,3.06c-.34.34-.51.75-.51,1.22,0,.48.17.88.51,1.22l1.83,1.83c.34.34.75.51,1.23.51.48,0,.89-.17,1.22-.5l3.06-3.06c.34-.34.51-.75.5-1.23ZM55.17,40.67c-.08.08-.17.09-.25,0l-1.59-1.59s-.05-.07-.05-.12c0-.05.02-.09.06-.13l2.81-2.81s.07-.05.12-.05c.05,0,.09.02.12.05l1.59,1.59s.05.07.05.12c0,.05-.02.09-.05.12l-2.81,2.81Z"/>
      <path class="cls-1" d="M65.62,31.94c0-.48-.17-.89-.51-1.22l-1.83-1.83c-.34-.34-.75-.51-1.22-.51-.47,0-.88.17-1.22.51l-3.06,3.06c-.34.34-.51.75-.51,1.22,0,.48.17.88.51,1.22l1.83,1.83c.34.34.75.51,1.23.51.48,0,.89-.17,1.22-.5l3.06-3.06c.34-.34.51-.75.5-1.23ZM60.97,34.87c-.08.08-.17.09-.25,0l-1.59-1.59s-.05-.07-.05-.12c0-.05.02-.09.06-.13l2.81-2.81s.07-.05.12-.05c.05,0,.09.02.12.05l1.59,1.59s.05.08.05.12c0,.05-.02.09-.05.12l-2.81,2.81Z"/>
      <g>
        <path class="cls-1" d="M70.8,21.63l-7.09,7.09,1.57,1.57,7.09-7.09-1.57-1.57Z"/>
        <path class="cls-1" d="M78.19,14.24l-7.09,7.09,1.57,1.57,7.09-7.09-1.57-1.57Z"/>
        <path class="cls-1" d="M86.62,7.88c-.96.25-1.92.52-2.88.8l-5.25,5.25,1.57,1.57,7.09-7.09-.54-.54Z"/>
        <path class="cls-1" d="M87.1,7.76l.36.36.61-.61c-.32.08-.65.16-.97.25Z"/>
      </g>
    </g>
    <g>
      <path class="cls-1" d="M101.12,127.43s.03-.03.04-.04c.03-.03.06-.06.08-.1.05-.07.1-.15.14-.23.09-.16.15-.35.17-.54,0-.04.01-.09.02-.13,0-.03,0-.06,0-.09,0-.02,0-.03,0-.05h0c0-.48-.17-.89-.51-1.22l-1.83-1.83c-.34-.34-.75-.51-1.22-.51-.12,0-.23.01-.34.03-.33.07-.62.22-.88.48l-3.06,3.06c-.34.34-.51.74-.51,1.22,0,.02,0,.03,0,.05l2.78,2.8.71.71s0,0,.01,0c.02,0,.03,0,.05,0t0,0h0c.06,0,.12,0,.18,0,.06,0,.11-.01.17-.02s.11-.02.16-.04c.27-.08.5-.22.71-.43l3.06-3.06s.03-.03.04-.05ZM96.93,129.18s-.08.06-.12.06c-.02,0-.04,0-.06-.01h0s-.04-.02-.06-.04l-1.6-1.6s-.03-.04-.04-.06c0,0,0-.02-.01-.03,0-.01,0-.02,0-.03h0s0-.05.01-.07c.01-.02.02-.04.04-.06l2.81-2.81s.07-.05.12-.05c.05,0,.09.02.12.05l1.6,1.6s.05.07.05.12c0,.05-.02.09-.05.12l-2.81,2.81Z"/>
      <path class="cls-1" d="M79.42,143.28l-7.09,7.09,1.58,1.58,7.09-7.09-1.58-1.58Z"/>
      <path class="cls-1" d="M57.25,165.45l-6.59,6.59,1.75,1.41,6.42-6.42-1.58-1.58Z"/>
      <path class="cls-1" d="M94.2,128.5l-7.09,7.09,1.58,1.58,7.09-7.09-1.58-1.58Z"/>
      <path class="cls-1" d="M86.81,135.89l-7.09,7.09,1.58,1.58,7.09-7.09-1.58-1.58Z"/>
      <path class="cls-1" d="M77.55,141.41l-7.09,7.09,1.58,1.58,7.09-7.09-1.58-1.58Z"/>
      <path class="cls-1" d="M70.16,148.8l-7.09,7.09,1.58,1.58,7.09-7.09-1.58-1.58Z"/>
      <path class="cls-1" d="M62.77,156.19l-7.09,7.09,1.58,1.58,7.09-7.09-1.58-1.58Z"/>
      <path class="cls-1" d="M55.37,163.58l-6.74,6.74,1.7,1.45,6.62-6.62-1.58-1.58Z"/>
      <path class="cls-1" d="M92.33,126.63l-7.09,7.09,1.57,1.57,7.09-7.09-1.57-1.57Z"/>
      <path class="cls-1" d="M84.94,134.02l-7.09,7.09,1.58,1.58,7.09-7.09-1.58-1.58Z"/>
      <path class="cls-1" d="M59.12,167.33l-6.38,6.38c.59.46,1.19.92,1.79,1.36l6.17-6.17-1.57-1.57Z"/>
      <path class="cls-1" d="M96.08,130.37l-7.09,7.09,1.57,1.57,7.09-7.09-1.57-1.57Z"/>
      <path class="cls-1" d="M88.69,137.76l-7.09,7.09,1.57,1.57,7.09-7.09-1.57-1.57Z"/>
      <path class="cls-1" d="M64.64,158.06l-7.09,7.09,1.58,1.58,7.09-7.09-1.58-1.58Z"/>
      <path class="cls-1" d="M66.51,159.94l-7.09,7.09,1.57,1.57,7.09-7.09-1.57-1.57Z"/>
      <path class="cls-1" d="M72.03,150.67l-7.09,7.09,1.58,1.58,7.09-7.09-1.58-1.58Z"/>
      <path class="cls-1" d="M73.9,152.55l-7.09,7.09,1.57,1.57,7.09-7.09-1.57-1.57Z"/>
      <path class="cls-1" d="M81.29,145.16l-7.09,7.09,1.57,1.57,7.09-7.09-1.57-1.57Z"/>
      <path class="cls-1" d="M107.38,120.46c0-.48-.17-.89-.51-1.22l-1.83-1.83c-.34-.34-.75-.51-1.22-.51-.47,0-.88.17-1.22.51l-3.06,3.06c-.34.34-.51.75-.51,1.22,0,.48.17.88.51,1.22l1.83,1.83c.34.34.75.51,1.23.51.48,0,.89-.16,1.22-.5l3.06-3.06c.34-.34.51-.75.5-1.23ZM102.73,123.4c-.08.08-.17.09-.25,0l-1.59-1.59s-.05-.07-.05-.12c0-.05.02-.09.06-.13l2.81-2.81s.07-.05.12-.05c.05,0,.09.02.12.05l1.59,1.59s.05.08.05.12c0,.05-.02.09-.05.12l-2.81,2.81Z"/>
      <path class="cls-1" d="M113.18,114.67c0-.48-.17-.89-.51-1.22l-1.83-1.83c-.34-.34-.75-.51-1.22-.51-.48,0-.88.17-1.22.51l-3.06,3.06c-.34.34-.51.75-.51,1.22,0,.48.17.88.51,1.22l1.83,1.83c.34.34.75.51,1.23.51.48,0,.89-.17,1.22-.5l3.06-3.06c.34-.34.5-.75.5-1.23ZM108.53,117.6c-.08.08-.17.09-.25,0l-1.59-1.59s-.05-.07-.05-.12c0-.05.02-.09.06-.13l2.81-2.81s.07-.05.12-.05c.05,0,.09.02.12.05l1.59,1.59s.05.08.05.12c0,.05-.02.09-.05.12l-2.81,2.81Z"/>
      <path class="cls-1" d="M118.96,108.86c0-.48-.17-.88-.51-1.22l-1.83-1.83c-.34-.34-.74-.51-1.22-.51-.48,0-.88.17-1.22.51l-3.06,3.06c-.34.34-.51.75-.51,1.22,0,.48.17.88.51,1.22l1.83,1.83c.34.34.75.51,1.23.51.48,0,.88-.17,1.22-.5l3.06-3.06c.34-.34.51-.75.5-1.23ZM114.31,111.8c-.08.08-.17.08-.25,0l-1.59-1.59s-.05-.07-.05-.12c0-.05.02-.09.06-.13l2.81-2.81s.07-.05.12-.05c.05,0,.09.02.12.05l1.59,1.59s.05.08.05.12c0,.05-.02.09-.05.12l-2.81,2.81Z"/>
      <path class="cls-1" d="M124.76,103.07c0-.48-.17-.89-.51-1.22l-1.83-1.83c-.34-.34-.75-.51-1.22-.51-.47,0-.88.17-1.22.51l-3.06,3.06c-.34.34-.51.74-.51,1.22,0,.47.17.88.51,1.22l1.83,1.83c.34.34.75.51,1.23.51.48,0,.88-.17,1.22-.5l3.06-3.06c.34-.34.51-.75.5-1.23ZM120.11,106.01c-.08.08-.17.09-.25,0l-1.59-1.59s-.05-.08-.05-.12c0-.05.02-.09.06-.13l2.81-2.81s.07-.05.12-.05c.05,0,.09.02.12.05l1.59,1.59s.05.07.05.12c0,.05-.02.09-.05.12l-2.81,2.81Z"/>
      <path class="cls-1" d="M130.55,97.28c0-.48-.17-.89-.51-1.22l-1.83-1.83c-.34-.34-.75-.51-1.22-.51-.47,0-.88.17-1.22.51l-3.06,3.06c-.34.34-.51.75-.51,1.22,0,.47.17.88.51,1.22l1.83,1.83c.34.34.75.51,1.23.51.48,0,.88-.17,1.22-.5l3.06-3.06c.34-.34.51-.75.5-1.23ZM125.9,100.21c-.08.08-.17.09-.25,0l-1.59-1.59s-.05-.08-.05-.12c0-.05.02-.09.06-.13l2.81-2.81s.07-.05.12-.05c.05,0,.09.02.12.05l1.59,1.59s.05.07.05.12c0,.05-.02.09-.05.12l-2.81,2.81Z"/>
      <path class="cls-1" d="M136.34,91.48c0-.48-.17-.89-.51-1.22l-1.83-1.83c-.34-.34-.75-.51-1.22-.51-.47,0-.88.17-1.22.51l-3.06,3.06c-.34.34-.51.75-.51,1.22,0,.47.17.88.51,1.22l1.83,1.83c.34.34.75.51,1.23.51.48,0,.88-.17,1.22-.5l3.06-3.06c.34-.34.51-.75.5-1.23ZM131.69,94.42c-.08.08-.17.09-.25,0l-1.59-1.59s-.05-.08-.05-.12c0-.05.02-.09.06-.13l2.81-2.81s.07-.05.12-.05c.05,0,.09.02.12.05l1.59,1.59s.05.08.05.12c0,.05-.02.09-.05.12l-2.81,2.81Z"/>
      <path class="cls-1" d="M142.14,85.69c0-.3-.07-.58-.21-.82-.08-.14-.18-.27-.3-.39l-1.83-1.83c-.34-.34-.75-.51-1.22-.51-.47,0-.88.17-1.22.51l-3.06,3.06c-.34.34-.51.75-.51,1.22,0,.47.17.88.51,1.22l1.83,1.83c.34.34.75.51,1.23.51.48,0,.88-.17,1.22-.5l3.06-3.06c.34-.34.51-.75.5-1.23ZM137.49,88.63c-.08.08-.17.09-.25,0l-1.59-1.59s-.05-.08-.05-.12c0-.05.02-.09.06-.13l2.81-2.81s.07-.05.12-.05c.05,0,.09.02.12.05l1.59,1.59s.05.08.05.12c0,.05-.02.09-.05.12l-2.81,2.81Z"/>
      <g>
        <path class="cls-1" d="M147.32,75.38l-7.09,7.09,1.58,1.58,7.09-7.09-1.58-1.58Z"/>
        <path class="cls-1" d="M154.71,67.99l-7.09,7.09,1.57,1.57,7.09-7.09-1.57-1.57Z"/>
        <path class="cls-1" d="M162.1,60.6l-7.09,7.09,1.57,1.57,7.09-7.09-1.57-1.57Z"/>
        <path class="cls-1" d="M169.5,53.21l-7.09,7.09,1.57,1.57,7.09-7.09-1.57-1.57Z"/>
        <path class="cls-1" d="M176.89,45.82l-7.09,7.09,1.57,1.57,7.09-7.09-1.57-1.57Z"/>
        <path class="cls-1" d="M183.55,39.15l-6.37,6.37,1.58,1.58,6.2-6.2c-.46-.58-.93-1.17-1.41-1.74Z"/>
      </g>
    </g>
    <g>
      <g>
        <path class="cls-1" d="M141.35,182.48l-7.09,7.09.81.81c.71-.19,1.41-.38,2.11-.59l5.74-5.74-1.57-1.57Z"/>
        <path class="cls-1" d="M156.14,167.7l-7.09,7.09,1.57,1.57,7.09-7.09-1.57-1.57Z"/>
        <path class="cls-1" d="M148.74,175.09l-7.09,7.09,1.57,1.57,7.09-7.09-1.57-1.57Z"/>
        <path class="cls-1" d="M139.48,180.61l-7.09,7.09,1.57,1.57,7.09-7.09-1.57-1.57Z"/>
        <path class="cls-1" d="M132.09,188l-3.96,3.96c1.33-.25,2.66-.52,3.98-.83l1.55-1.55-1.57-1.57Z"/>
        <path class="cls-1" d="M154.26,165.83l-7.09,7.09,1.57,1.57,7.09-7.09-1.57-1.57Z"/>
        <path class="cls-1" d="M146.87,173.22l-7.09,7.09,1.57,1.57,7.09-7.09-1.57-1.57Z"/>
        <path class="cls-1" d="M158.01,169.57l-7.09,7.09,1.57,1.57,7.09-7.09-1.57-1.57Z"/>
        <path class="cls-1" d="M150.62,176.96l-7.09,7.09,1.57,1.57,7.09-7.09-1.57-1.57Z"/>
        <path class="cls-1" d="M133.96,189.87l-1.07,1.07c.57-.14,1.14-.28,1.7-.43l-.64-.64Z"/>
        <path class="cls-1" d="M143.23,184.36l-5.19,5.19c1.58-.47,3.15-.99,4.7-1.55l2.07-2.07-1.57-1.57Z"/>
      </g>
      <path class="cls-1" d="M163.97,164.97c0-.48-.17-.88-.51-1.22l-1.83-1.83c-.34-.34-.74-.51-1.22-.51-.48,0-.88.17-1.22.51l-3.05,3.05c-.34.34-.51.75-.51,1.22,0,.48.17.88.51,1.22l1.83,1.83c.34.34.75.51,1.23.51.46,0,.84-.15,1.17-.46.02-.01.03-.03.05-.05l3.05-3.05c.34-.34.51-.75.5-1.23ZM157.48,166.32s-.05-.07-.05-.12c0-.05.02-.09.06-.13l2.81-2.81s.07-.05.12-.05c.05,0,.09.02.12.05l1.59,1.59s.05.07.05.12c0,.05-.02.09-.05.12l-2.81,2.81c-.08.08-.17.08-.25,0l-1.59-1.59Z"/>
      <path class="cls-1" d="M169.76,159.18c0-.48-.17-.89-.51-1.22l-1.83-1.83c-.34-.34-.75-.51-1.22-.51-.47,0-.88.17-1.22.51l-3.06,3.06c-.34.34-.51.74-.51,1.22,0,.47.17.88.51,1.22l1.83,1.83c.34.34.75.51,1.23.51.48,0,.88-.17,1.22-.5l3.06-3.06c.34-.34.51-.75.5-1.23ZM165.11,162.12c-.08.08-.17.09-.25,0l-1.59-1.59s-.05-.08-.05-.12c0-.05.02-.09.06-.13l2.81-2.81s.07-.05.12-.05c.05,0,.09.02.12.05l1.59,1.59s.05.07.05.12c0,.05-.02.09-.05.12l-2.81,2.81Z"/>
      <path class="cls-1" d="M175.56,153.39c0-.48-.17-.89-.51-1.22l-1.83-1.83c-.34-.34-.75-.51-1.22-.51-.47,0-.88.17-1.22.51l-3.06,3.06c-.34.34-.51.75-.51,1.22,0,.47.17.88.51,1.22l1.83,1.83c.34.34.75.51,1.23.51.48,0,.88-.17,1.22-.5l3.06-3.06c.34-.34.51-.75.5-1.23ZM170.91,156.32c-.08.08-.17.09-.25,0l-1.59-1.59s-.05-.08-.05-.12c0-.05.02-.09.06-.13l2.81-2.81s.07-.05.12-.05c.05,0,.09.02.12.05l1.59,1.59s.05.07.05.12c0,.05-.02.09-.05.12l-2.81,2.81Z"/>
      <path class="cls-1" d="M181.35,147.59c0-.48-.17-.89-.51-1.22l-1.83-1.83c-.34-.34-.75-.51-1.22-.51-.47,0-.88.17-1.22.51l-3.06,3.06c-.34.34-.51.75-.51,1.22,0,.47.17.88.51,1.22l1.83,1.83c.34.34.75.51,1.23.51.48,0,.89-.17,1.22-.5l3.06-3.06c.34-.34.51-.75.5-1.23ZM176.7,150.53c-.08.08-.17.09-.25,0l-1.59-1.59s-.05-.08-.05-.12.02-.09.06-.13l2.81-2.81s.07-.05.12-.05c.05,0,.09.02.12.05l1.59,1.59s.05.08.05.12c0,.05-.02.09-.05.12l-2.81,2.81Z"/>
      <g>
        <path class="cls-1" d="M186.53,137.28l-7.09,7.09,1.58,1.58,7.09-7.09-1.58-1.58Z"/>
        <path class="cls-1" d="M193.93,129.89l-7.09,7.09,1.58,1.58,7.09-7.09-1.58-1.58Z"/>
        <path class="cls-1" d="M202,123.18l-.68-.68-7.09,7.09,1.58,1.58,5.52-5.52c.24-.82.47-1.64.68-2.47Z"/>
        <path class="cls-1" d="M202.46,121.36l-.84.84.51.51c.12-.45.23-.9.34-1.35Z"/>
      </g>
    </g>
    <g>
      <g>
        <path class="cls-1" d="M46.22,36.95c0-.48-.17-.89-.51-1.22l-1.83-1.83c-.25-.25-.54-.41-.86-.47-.02,0-.04,0-.06-.01-1.34,1.38-2.63,2.79-3.87,4.23h0s.64.65.64.65c-.03-.03-.05-.08-.05-.12,0-.05.02-.09.06-.13l2.81-2.81s.07-.05.12-.05.09.02.12.05l1.59,1.59s.05.08.05.12-.02.09-.05.12l-2.81,2.81c-.08.08-.17.09-.25,0l1.34,1.34,3.06-3.06c.34-.34.51-.75.5-1.23Z"/>
        <path class="cls-1" d="M52.01,31.16c0-.48-.17-.89-.51-1.22l-1.83-1.83c-.19-.19-.41-.33-.65-.41-1.62,1.4-3.2,2.86-4.74,4.39h0c-.14.13-.27.26-.41.39-.06.06-.12.12-.18.19,0,0,0,0,0,.01.05.35.22.66.48.93l1.83,1.83c.34.34.75.51,1.23.51.48,0,.88-.17,1.22-.5l3.06-3.06c.34-.34.51-.75.5-1.23ZM47.36,34.09c-.08.08-.17.09-.25,0l-1.59-1.59s-.05-.08-.05-.12c0-.05.02-.09.06-.13l2.81-2.81s.07-.05.12-.05c.05,0,.09.02.12.05l1.59,1.59s.05.08.05.12c0,.05-.02.09-.05.12l-2.81,2.81Z"/>
        <g>
          <path class="cls-1" d="M57.51,21.16c-.71.49-1.42.99-2.13,1.5l-5.28,5.28,1.58,1.58,7.09-7.09-1.26-1.26Z"/>
          <path class="cls-1" d="M57.86,20.92l1.2,1.2,5.13-5.13c-2.15,1.22-4.26,2.53-6.34,3.93Z"/>
        </g>
      </g>
      <g>
        <path class="cls-1" d="M39.75,38.31l-5.8,5.8.03.03c-.34.47-.68.95-1.01,1.43-.02.03-.04.06-.06.09l1.32,1.32,7.09-7.09-1.57-1.57Z"/>
        <path class="cls-1" d="M32.66,46.01c-1.5,2.19-2.89,4.43-4.18,6.71l5.45-5.45-1.27-1.27Z"/>
        <path class="cls-1" d="M39.09,37.65c-.36.42-.71.83-1.06,1.25-.13.16-.26.31-.39.47-.6.72-1.18,1.46-1.75,2.2l3.56-3.56-.36-.36Z"/>
        <path class="cls-1" d="M41.62,40.18l-7.09,7.09,1.57,1.57,7.09-7.09-1.57-1.57Z"/>
        <path class="cls-1" d="M34.23,47.57l-6.49,6.49-.42.79,1.39,1.39,7.09-7.09-1.57-1.57Z"/>
        <path class="cls-1" d="M27.11,55.24c-.88,1.67-1.71,3.37-2.48,5.09l3.78-3.78-1.3-1.3Z"/>
      </g>
      <line class="cls-1" x1="37" y1="41.05" x2="38.22" y2="39.83"/>
    </g>
    <g>
      <g>
        <path class="cls-1" d="M171.59,164.01l-3.06,3.06,1.34,1.34c-.08-.08-.08-.16,0-.25l2.81-2.81s.07-.05.12-.05.09.02.12.05l1.59,1.59s.05.08.05.12-.02.09-.05.12l-2.81,2.81s-.08.06-.13.06c-.05,0-.09-.02-.12-.05l.64.64h0c1.44-1.25,2.85-2.53,4.23-3.88,0-.02,0-.04-.01-.06-.06-.33-.22-.61-.47-.86l-1.83-1.83c-.34-.34-.74-.51-1.22-.51-.48,0-.89.16-1.23.5Z"/>
        <path class="cls-1" d="M177.38,158.21l-3.06,3.06c-.33.33-.5.74-.5,1.22,0,.48.17.89.51,1.23l1.83,1.83c.27.27.58.43.93.48,0,0,0,0,.01,0,.06-.06.13-.12.19-.18.13-.13.26-.27.39-.41h0c1.53-1.55,2.99-3.13,4.39-4.75-.08-.24-.22-.45-.41-.65l-1.83-1.83c-.33-.33-.74-.5-1.22-.51-.48,0-.89.16-1.23.5ZM178.48,159.55s.07-.05.12-.05c.05,0,.09.02.12.05l1.59,1.59s.05.08.05.12c0,.05-.02.09-.05.12l-2.81,2.81s-.08.06-.13.06c-.05,0-.09-.02-.12-.05l-1.59-1.59c-.08-.08-.08-.16,0-.25l2.81-2.81Z"/>
        <g>
          <path class="cls-1" d="M187.34,150.95l-7.09,7.09,1.58,1.58,5.28-5.28c.51-.7,1.01-1.41,1.5-2.13l-1.26-1.26Z"/>
          <path class="cls-1" d="M192.77,145.52l-5.13,5.13,1.2,1.2c1.4-2.07,2.71-4.18,3.93-6.34Z"/>
        </g>
      </g>
      <g>
        <path class="cls-1" d="M169.88,168.4l-7.09,7.09,1.32,1.32s.06-.04.09-.06c.48-.33.96-.67,1.43-1.01l.03.03,5.8-5.8-1.57-1.57Z"/>
        <path class="cls-1" d="M162.49,175.79l-5.45,5.45c2.28-1.29,4.52-2.68,6.71-4.18l-1.27-1.27Z"/>
        <path class="cls-1" d="M171.76,170.27l-3.56,3.56c.74-.57,1.48-1.15,2.2-1.75.16-.13.31-.26.47-.39.42-.35.84-.7,1.25-1.06l-.36-.36Z"/>
        <path class="cls-1" d="M168.01,166.53l-7.09,7.09,1.57,1.57,7.09-7.09-1.57-1.57Z"/>
        <path class="cls-1" d="M160.62,173.92l-7.09,7.09,1.39,1.39.79-.42,6.49-6.49-1.57-1.57Z"/>
        <path class="cls-1" d="M153.23,181.31l-3.78,3.78c1.72-.77,3.41-1.6,5.09-2.48l-1.3-1.3Z"/>
      </g>
      <line class="cls-1" x1="169.93" y1="171.5" x2="168.71" y2="172.72"/>
      <g>
        <path class="cls-1" d="M169.88,168.4l-7.09,7.09,1.32,1.32s.06-.04.09-.06c.48-.33.96-.67,1.43-1.01l.03.03,5.8-5.8-1.57-1.57Z"/>
        <path class="cls-1" d="M162.49,175.79l-5.45,5.45c2.28-1.29,4.52-2.68,6.71-4.18l-1.27-1.27Z"/>
        <path class="cls-1" d="M171.75,170.27l-3.56,3.56c.74-.57,1.48-1.15,2.2-1.75.16-.13.31-.26.47-.39.42-.35.84-.7,1.25-1.06l-.36-.36Z"/>
        <path class="cls-1" d="M168.01,166.53l-7.09,7.09,1.57,1.57,7.09-7.09-1.57-1.57Z"/>
        <path class="cls-1" d="M160.62,173.92l-7.09,7.09,1.39,1.39.79-.42,6.49-6.49-1.57-1.57Z"/>
        <path class="cls-1" d="M153.23,181.31l-3.78,3.78c1.72-.77,3.41-1.6,5.09-2.48l-1.3-1.3Z"/>
      </g>
      <line class="cls-1" x1="168.71" y1="172.72" x2="169.93" y2="171.5"/>
    </g>
  </g>
</svg>